<?xml version="1.0" encoding="utf-8"?>
<!-- Generator: Adobe Illustrator 21.1.0, SVG Export Plug-In . SVG Version: 6.00 Build 0)  -->
<svg version="1.1" id="Layer_1" xmlns="http://www.w3.org/2000/svg" xmlns:xlink="http://www.w3.org/1999/xlink" x="0px" y="0px"
	 viewBox="0 0 147 82" style="enable-background:new 0 0 147 82;" xml:space="preserve">
<g>
	<path d="M26.9,46.5c0.1,0,0.1,0.1,0.1,0.2V47c0,0.1,0,0.1-0.1,0.1c-0.1,0-0.1,0-0.1-0.1c-0.1,0-0.2-0.1-0.2-0.3
		c-0.1,0-0.2,0-0.2,0.2c0,0,0,0.1,0.1,0.2c0.1,0.1,0.2,0.2,0.2,0.3v0.1h0.1c-0.1,0.1-0.2,0.1-0.3,0.1c0.1,0.1,0.2,0.1,0.2,0.2
		c0.1,0,0.1,0.1,0.1,0.2c-0.1,0-0.1,0.1-0.2,0.1c0,0-0.1,0.1-0.2,0.1h-0.1c-0.1,0-0.1,0.1-0.2,0.2c0,0.2,0,0.2,0,0.2
		c0,0.1,0,0.1,0.1,0.1h0.1h0.2c-0.1,0-0.1,0.1-0.1,0.1c0,0,0,0.1-0.1,0.1c0.1,0.1,0.3,0.1,0.4,0c0.2-0.3,0.3-0.5,0.3-0.7
		c0.1-0.1,0.1-0.2,0.1-0.3c0-0.1,0-0.2,0.1-0.3v-0.3c0.1-0.1,0.1-0.3,0.1-0.5c0-0.1,0-0.2,0-0.3c0-0.1,0-0.2,0-0.3
		c0.1,0,0.1-0.1,0.1-0.2c0-0.1,0-0.2,0-0.2V46c0.1,0,0.1-0.1,0.1-0.2c0-0.1,0-0.2,0.1-0.3c0.2-0.3,0.3-0.6,0.3-1
		c0-0.1,0-0.2,0.1-0.2c0.1-0.1,0.1-0.2,0.1-0.3c0-0.1,0-0.3,0.1-0.4c0.1-0.1,0.2-0.4,0.3-0.8v-0.2c0-0.1,0.1-0.2,0.2-0.3
		c0.1-0.1,0.1-0.3,0.2-0.5v-0.2l0.1-0.1c-0.1-0.1-0.1-0.2-0.1-0.3c0-0.1,0.1-0.2,0.1-0.3c0-0.1,0.1-0.2,0.1-0.3
		c0-0.1,0.1-0.2,0.1-0.4c0.1-0.3,0.2-0.5,0.1-0.8l0.1-0.1c0.1,0,0.1,0,0.1-0.1c0-0.1,0-0.2,0.1-0.3c0.1-0.1,0.2-0.4,0.2-0.9
		c0-0.1,0-0.1,0.1-0.1c0,0,0.1,0,0.1-0.1c0.1-0.1,0.1-0.2,0.2-0.3c0-0.1,0.1-0.2,0.2-0.4V37c0-0.1,0.1-0.2,0.2-0.3
		c0.1-0.1,0.1-0.2,0.2-0.4V36c0-0.1,0-0.3,0.1-0.4c0.1-0.1,0.2-0.3,0.2-0.5V35c0.1-0.1,0.2-0.3,0.2-0.6c0,0,0-0.1,0.1-0.2
		c0,0,0-0.1,0.1-0.1c0.1,0,0.1-0.1,0-0.2c0.2-0.1,0.3-0.3,0.3-0.4c0-0.1,0-0.2,0-0.3c0,0,0-0.1,0-0.1c0,0,0,0,0-0.1
		c0-0.2,0-0.3,0.1-0.3c0.1,0,0.1-0.1,0.2-0.2c-0.1-0.1-0.2-0.2-0.1-0.3V32l0.1-0.1c0,0,0-0.1,0-0.1c0,0,0,0,0-0.1c0-0.1,0-0.2,0-0.2
		c0,0,0-0.1,0-0.2c0.1,0,0.1-0.1,0.2-0.1c0,0,0.1-0.1,0.2-0.2c0.1,0,0.1-0.1,0.1-0.1c0,0,0-0.1,0-0.1c0-0.2,0-0.3,0.1-0.4v-0.1
		c0,0,0.1-0.2,0.1-0.5c0.1-0.1,0.1-0.2,0.1-0.3c0-0.1,0-0.1,0.1-0.2c0-0.1,0-0.2,0-0.3c0-0.1,0-0.1,0.1-0.1c0.3-0.2,0.5-0.3,0.5-0.3
		l-0.1-0.1c0-0.1,0.1-0.2,0.2-0.2L34,28c0-0.1-0.1-0.2-0.1-0.3c0-0.1,0-0.1-0.1-0.2c0,0-0.1,0-0.1-0.1s0-0.1,0.1-0.1
		c0.1-0.1,0.2-0.1,0.2-0.1s0.1,0,0.2-0.1v-0.3c0.2-0.1,0.3-0.2,0.3-0.2c0,0,0.1,0,0.3-0.2c-0.1,0-0.1-0.1-0.1-0.2h-0.1
		c0,0.2-0.1,0.2-0.3,0l0.1-0.1c0.1-0.1,0.2-0.1,0.2-0.1h0.3h0.1c0-0.1,0-0.2-0.1-0.3c-0.1-0.1-0.1-0.2,0.1-0.3h-0.1v-0.1v-0.1H35
		c0.1,0,0.2-0.1,0.2-0.3c0-0.1,0-0.2,0.1-0.3c0,0,0.1,0,0.1-0.1v-0.1c-0.1-0.1-0.2-0.2-0.3-0.3V24h0.1h0.2h0.1c0,0,0.1,0,0.1,0
		c0,0,0,0,0.1,0c-0.2-0.1-0.2-0.2,0-0.3l0.2-0.2V23c0,0-0.1-0.1-0.1-0.1h-0.1c0.1,0,0.2,0,0.3-0.1c0.1-0.1,0.1-0.2,0.1-0.3
		c0,0,0-0.1,0-0.1c0,0,0,0,0-0.1V22c0.1,0.1,0.2,0.1,0.2-0.1c0-0.2,0.1-0.2,0.3-0.2v0.2c0.1,0.1,0.2,0.1,0.3,0c0-0.1,0.1-0.1,0.2,0
		v-0.2c-0.1,0-0.1,0-0.2,0c0,0-0.1,0-0.2,0c0,0-0.1-0.1-0.2-0.3c0-0.1,0-0.1,0-0.2c0,0,0-0.1,0-0.2l0.1,0.1v0.1c0,0.2,0,0.3,0.1,0.3
		c0.1,0,0.2,0,0.2-0.1L37,21.2c0.1-0.1,0.1-0.2,0.1-0.3h-0.5v-0.1h0.3c0,0,0-0.1,0-0.1c0,0,0,0,0-0.1v-0.1c0.1,0,0.1,0.1,0.1,0.2
		c0.1,0,0.2,0,0.4,0c0.2,0,0.3,0,0.4-0.1c0-0.1,0-0.1-0.1-0.1c-0.1,0-0.2,0-0.2,0c0-0.1,0.1-0.3,0.2-0.4l-0.1,0.1h-0.1
		c-0.1-0.1-0.1-0.2-0.1-0.2c0-0.1,0-0.1-0.1-0.2c0.1,0,0.1-0.1,0-0.1c-0.1,0-0.1-0.1,0-0.1c0.1-0.1,0.1-0.2,0.1-0.4h0.1
		c0.1-0.1,0.1-0.2,0-0.3l0.1-0.1c-0.1-0.1-0.1-0.2-0.2-0.2c0,0-0.1-0.1-0.2-0.1c0.1,0,0.2,0,0.2-0.1c0-0.1,0.1-0.1,0.3-0.2l0.1,0.1
		c0,0,0.1,0.1,0.1,0.1c0,0,0.1,0,0.2-0.1c0.1-0.1,0.1-0.1,0.2-0.1c0.2-0.1,0.3-0.2,0.3-0.3c0-0.2,0-0.3-0.1-0.3
		c0.1-0.1,0.2-0.2,0.3-0.1c0.1,0.1,0.2,0,0.3-0.2c0-0.1-0.1-0.1-0.2-0.1c-0.1,0-0.1,0-0.2-0.1C38.9,17,39,17,39,17
		c0-0.1-0.1-0.2-0.1-0.3c0-0.1-0.1-0.1-0.2-0.1v-0.2c0.1,0,0.2,0,0.2-0.1c0-0.1,0.1-0.1,0.2-0.2c-0.1,0-0.2-0.1-0.2-0.2v-0.2
		c0.1-0.1,0.2-0.3,0.2-0.4c0-0.1,0-0.2,0-0.3v-0.1v-0.3C39,14.4,39,14.4,39,14.5c0,0-0.1,0.1-0.2,0.1v-0.5l0.1-0.1
		c0.3,0,0.5-0.1,0.5-0.3c0.1-0.2,0.3-0.3,0.4-0.3v-0.2c0.1,0,0.2-0.1,0.2-0.2c0-0.2,0-0.3-0.1-0.4v-0.2c-0.1-0.2-0.1-0.4-0.2-0.4
		c0-0.1-0.1-0.2-0.2-0.4c0-0.1,0-0.2,0.1-0.2c0-0.1,0.1-0.1,0.1-0.2c0.1,0,0.1-0.1,0.1-0.2c0-0.1,0.1-0.2,0.3-0.3
		c0.1-0.1,0.2-0.1,0.3-0.2c0-0.2,0.2-0.3,0.4-0.3c0.2,0.2,0.3,0.3,0.5,0.3c0,0,0,0.1,0.1,0.1h0.1c0.1,0,0.2,0,0.2,0.1
		c0.1,0,0.3,0.1,0.6,0.1c0,0.3,0.1,0.4,0.3,0.4c0.1,0,0.2,0,0.2,0.1c0,0.1,0.1,0.1,0.2,0.2l0.3,0.3c0,0.1,0,0.2,0.1,0.2
		c0,0,0,0.1-0.1,0.2v0.4c0.1,0.2,0.1,0.3,0,0.4c-0.1,0-0.2,0.1-0.3,0.2h-0.3c0,0,0,0.1-0.1,0.1c0,0-0.1,0-0.1,0.1c0,0,0,0.1,0.1,0.1
		c0,0,0.1,0,0.1,0.1c0,0,0.1,0,0.2-0.1c0.1,0,0.1,0,0.2,0.1v0.1c0,0-0.1,0-0.1,0.1c0,0.1-0.1,0.1-0.2,0.1c0,0-0.1,0-0.1-0.1
		c0-0.1,0-0.1-0.1-0.1c-0.1,0.2-0.3,0.4-0.4,0.4c0,0.2,0.2,0.4,0.4,0.7l-0.1-0.1h-0.1c0,0.1-0.1,0.1-0.1,0.1c0,0-0.1,0-0.1,0.1
		c0,0,0.1,0,0.1,0c0,0,0,0,0.1,0c0,0,0,0.1,0.1,0.1L42.4,15v0.3c0,0.2,0,0.3-0.1,0.3c-0.1,0-0.1,0.1-0.1,0.3l-0.1,0.1
		c0,0-0.1,0.1-0.1,0.1c0,0-0.1,0.1-0.1,0.1c0,0.1,0,0.2,0.1,0.2c0,0,0.1,0.1,0.1,0.3c-0.2,0-0.4,0-0.5,0.1c0-0.1,0-0.2-0.1-0.2v0.1
		v0.1c0,0.1,0,0.1,0.1,0.1c0,0.1,0,0.1,0.1,0.1c0,0,0.1,0,0.1-0.1c0.1,0,0.1,0,0.1,0.1c-0.1,0-0.1,0-0.2,0.1c0,0-0.1,0.1-0.2,0.1
		c0,0.1,0,0.2,0,0.2c0,0,0,0.1,0.1,0.2v0.2c-0.1,0-0.1,0-0.1,0.1c0,0,0,0.1-0.1,0.1c0,0-0.1,0.1-0.2,0.4h0.3c0,0.1,0,0.2,0.1,0.3
		c-0.1,0-0.2,0-0.2,0c-0.1,0-0.1,0-0.1,0.1l0.1,0.1c0,0,0,0.1-0.1,0.1c0,0-0.1,0-0.1,0.1c0,0,0,0.1,0.1,0.2c0,0.1,0.1,0.1,0.1,0.2
		h0.5c-0.1-0.1-0.2-0.1-0.2-0.2c-0.1,0-0.1-0.1-0.2-0.2l0.1-0.1c0.4-0.1,0.6,0,0.6,0.4c0,0.3-0.1,0.4-0.3,0.5c0-0.1-0.1-0.2-0.3-0.2
		c0.1,0,0.1,0.1,0.1,0.1c0,0,0,0.1,0.1,0.1c0,0,0,0.1,0,0.1c0,0,0,0,0,0.1L42,20.2c0.1,0.1,0.1,0.2,0.1,0.2c0,0-0.1,0.1-0.2,0.2v0.1
		H42c0,0.1,0,0.2-0.1,0.2c-0.1,0-0.1,0.1-0.1,0.2c0,0.1,0,0.2-0.1,0.3l-0.1,0.1c0,0,0.1,0,0.2,0.1c0.1,0,0.1,0.1,0.2,0.1
		c-0.1,0-0.1,0.1-0.2,0.1c0,0-0.1,0-0.2-0.1h-0.1c0,0-0.1,0-0.1,0.1h-0.3v-0.1c0-0.1,0-0.2,0-0.3c0,0,0.1-0.2,0.2-0.3
		c0-0.1,0-0.2,0-0.2c0,0,0-0.1,0-0.2c0,0,0-0.1-0.1-0.1c-0.1,0-0.1,0-0.2,0.1c-0.1,0.1-0.1,0.4-0.1,0.8v0.1
		c-0.1,0.1-0.1,0.2-0.1,0.2c0,0.2,0,0.4-0.1,0.5c0.2,0.1,0.3,0.2,0.3,0.2c0,0,0.1,0,0.3-0.1c0,0.1,0.1,0.1,0.1,0.2
		c0,0,0,0.1-0.1,0.2c0.1,0.1,0.1,0.2,0,0.3c-0.1,0.1-0.1,0.2-0.1,0.4c0.1,0.3,0,0.4-0.3,0.5c0,0.1,0.1,0.2,0.1,0.2
		c0,0,0.1,0.1,0.2,0.2c0,0-0.1,0-0.2-0.1c0,0-0.1-0.1-0.1-0.1c-0.1,0.1-0.2,0.2-0.2,0.2c0,0.1-0.1,0.1-0.1,0.2h0.3v0.5H41
		c0,0-0.1,0-0.1,0.1c-0.1,0.1-0.1,0.3-0.1,0.5l-0.1,0.1c0.1,0.2,0,0.4-0.2,0.5c0,0,0.1,0.1,0.1,0.3l-0.3,0.3c0,0.1,0.1,0.2,0.1,0.2
		c0,0,0.1,0.1,0.1,0.2c-0.1,0.1-0.1,0.3,0,0.5c-0.3,0.1-0.4,0.3-0.4,0.6c0,0.2,0,0.3-0.1,0.4l-0.1,0.1c0,0.2,0,0.4-0.1,0.5
		c0,0.1-0.1,0.3-0.1,0.4v0.3c0,0.1,0,0.2-0.1,0.2c0,0-0.1,0.1-0.1,0.2c0,0.1-0.1,0.3-0.2,0.4c-0.1,0.2-0.1,0.3,0,0.4
		c-0.1,0.1-0.2,0.3-0.2,0.4c0,0.1,0,0.2,0,0.4c0,0.1-0.1,0.2-0.2,0.4c-0.2,0.1-0.3,0.3-0.3,0.6c0,0.1,0,0.2-0.1,0.3
		c0,0.1-0.1,0.2-0.1,0.3c-0.1,0-0.1,0-0.1,0.1l-0.1,0.1c-0.1,0-0.1,0.1-0.2,0.2c0,0.1,0,0.2,0,0.2c0.2,0.3,0.2,0.6-0.1,0.9
		C38,35,38,35,38,35.1c0,0-0.1,0.1-0.2,0.1l-0.1,0.1c0,0.1,0,0.2,0,0.3c0,0.1,0,0.2,0,0.2c0,0.1,0,0.2-0.1,0.2
		c-0.1,0.1-0.1,0.3-0.2,0.4c0,0.1-0.1,0.2-0.2,0.3v0.1c0,0.1,0,0.2,0,0.3C37,37.2,37,37.3,37,37.4v0.1l-0.1,0.1v0.1
		c-0.1,0.2-0.3,0.4-0.5,0.5c0,0.1-0.1,0.3-0.1,0.5c0,0.3-0.1,0.5-0.2,0.5C36,39.3,36,39.4,36,39.5c0,0.1,0,0.2,0,0.2
		c-0.1,0.1-0.1,0.2-0.2,0.3c0,0.1-0.1,0.3-0.2,0.4c0,0-0.1,0.1-0.1,0.3c0,0.4-0.1,0.7-0.2,0.8l-0.1,0.1v0.1l-0.1,0.1L35.2,42
		c0,0.2,0,0.3-0.1,0.5c0,0.1-0.1,0.2-0.1,0.3c0,0.2-0.1,0.3-0.1,0.4c0,0.1-0.1,0.2-0.1,0.3c0,0.1-0.1,0.2-0.1,0.3
		c0,0.1-0.1,0.2-0.2,0.4c-0.1,0.1-0.1,0.3-0.1,0.5c-0.1,0.4-0.2,0.7-0.3,0.8c0,0.1-0.1,0.2-0.1,0.4c-0.1,0.1-0.1,0.2-0.1,0.3
		c0,0.1,0,0.2-0.1,0.3c-0.1,0.1-0.1,0.2-0.2,0.3c0,0.1-0.1,0.2-0.2,0.2c0,0.2,0,0.3-0.1,0.4c-0.1,0.1-0.1,0.2-0.2,0.4
		c0,0.1,0,0.2-0.1,0.3c-0.1,0.1-0.1,0.2-0.2,0.4c0,0.4-0.1,0.6-0.3,0.8c-0.1,0.2-0.2,0.4-0.2,0.7c-0.1,0.2-0.1,0.5-0.1,0.7
		c0,0-0.1,0-0.1,0.1c0,0-0.1,0-0.1,0.1L32,51c0,0.3-0.1,0.6-0.4,1c-0.1,0.2-0.2,0.3-0.2,0.3l-0.1,0.1v0.1v0.3
		c-0.3,0.3-0.5,0.7-0.5,1.1c-0.1,0.1-0.2,0.3-0.2,0.5v0.1l-0.1,0.1c-0.1,0.1-0.1,0.3,0,0.4c-0.2,0.1-0.3,0.2-0.4,0.5
		c-0.1,0.2-0.1,0.4-0.1,0.5s0,0.3-0.1,0.4v0.1c-0.1,0.2-0.2,0.4-0.3,0.6c-0.1,0.2-0.2,0.3-0.2,0.5l-0.1,0.1h-0.1c0,0,0,0.1-0.1,0.1
		c0,0-0.1,0.1-0.1,0.1h-0.2c0.1,0.1,0.1,0.2,0.1,0.4L29,58.6h-0.1c0,0-0.1,0-0.1,0.1l-0.1,0.1c-0.2,0-0.4,0.1-0.5,0.3h-0.1L28,59.1
		c-0.3,0-0.4,0.1-0.4,0.3v0.2c0,0.2-0.1,0.3-0.2,0.3l-0.1,0.1c-0.1,0.2-0.2,0.3-0.3,0.3c-0.3,0-0.5,0.1-0.7,0.2
		c-0.3,0.2-0.5,0.4-0.7,0.4c-0.2,0.1-0.4,0.1-0.5,0.2c-0.2,0-0.3,0.1-0.4,0.1c-0.2,0-0.3,0-0.4-0.1H24c-0.3-0.2-0.4-0.4-0.4-0.8
		c0-0.1,0-0.3-0.1-0.4c-0.1-0.1-0.1-0.3-0.2-0.4c0-0.1-0.1-0.2-0.2-0.3C23.1,59,23,58.9,23,58.8c0-0.2-0.1-0.3-0.2-0.5
		c-0.1-0.2-0.1-0.3-0.1-0.4c0-0.1,0-0.2-0.1-0.3V57c0.1-0.3,0.1-0.6,0-1c0-0.1-0.1-0.2,0-0.3c0-0.1,0-0.2,0-0.4
		c-0.1,0-0.1,0-0.1-0.1c0,0,0.1-0.1,0.1-0.1c0-0.4,0-0.9-0.1-1.3c-0.1-0.1-0.1-0.2-0.1-0.3c0-0.1,0.1-0.2,0.1-0.2v-0.5v-0.1
		c0.1-0.2,0.1-0.5,0-0.7c-0.1-0.3-0.1-0.5,0-0.7c0-0.2,0-0.5,0-0.7c0-0.3,0-0.5-0.1-0.8c0-0.3,0-0.5-0.1-0.6c0,0-0.1-0.1-0.1-0.3
		c0-0.2,0-0.3,0.1-0.4v-0.6c0-0.3,0-0.5,0.1-0.7v-0.3c-0.1-0.2-0.2-0.5-0.2-1c0.1-0.2,0.1-0.3,0.1-0.5c0-0.1-0.1-0.3-0.1-0.5
		c0,0,0-0.1,0.1-0.1c0,0,0.1-0.1,0.1-0.2c0-0.2,0-0.3,0.1-0.5c0-0.1,0-0.2-0.1-0.3c-0.2,0-0.3-0.1-0.3-0.3v-1.4c0-0.2,0-0.4,0-0.6
		s0-0.4-0.1-0.6c-0.1-0.2-0.1-0.4-0.1-0.6c0-0.2,0-0.4-0.1-0.6c0-0.1-0.1-0.2,0-0.4c0-0.2,0-0.3,0-0.4c0-0.1,0-0.2,0-0.3
		c0-0.1,0-0.2,0-0.3c0-0.3,0-0.5,0-0.8c0-0.3,0-0.5,0.1-0.7c0-0.4,0-0.8,0-1.1c0-0.4,0-0.7-0.1-1.1c0-0.1,0-0.2,0.1-0.3
		c0-0.1,0.1-0.2,0.1-0.3v-0.6c-0.1,0.2-0.2,0.4-0.2,0.6c-0.3,0.3-0.5,0.4-0.6,0.5c-0.1,0-0.2,0.2-0.3,0.4c0,0.2,0,0.3-0.1,0.3
		c-0.1,0.1-0.2,0.2-0.2,0.3c0,0.1-0.1,0.2-0.2,0.3l-0.1,0.1v0.1c0,0.1-0.1,0.2-0.1,0.2c0,0-0.1,0.1-0.1,0.2c0,0.1,0,0.1-0.1,0.1
		c0,0-0.1,0-0.1,0.1c0.1,0.2,0.1,0.4,0,0.5c-0.1,0.1-0.2,0.2-0.3,0.3c-0.1,0.3-0.2,0.5-0.2,0.6c0,0,0,0.1-0.1,0.2v0.1
		c0,0.4-0.2,0.8-0.6,1.1l-0.1,0.2c0,0,0,0.1-0.1,0.1L18,39.6c-0.1,0.1-0.2,0.2-0.2,0.2c0.1,0.1,0.1,0.2,0.1,0.2
		c0.1,0.2,0.1,0.4,0,0.5c-0.2,0.1-0.2,0.2-0.1,0.4v0.3c0,0.1-0.1,0.2-0.1,0.3c-0.1,0.1-0.1,0.2-0.2,0.2c0,0.1-0.1,0.1-0.2,0.1
		c0.3,0.3,0.3,0.5,0,0.6c0,0,0,0.1,0.1,0.1c0,0,0.1,0,0.1,0.1c0,0,0,0.1,0,0.2c0,0.1-0.1,0.2-0.2,0.2c-0.1,0.1-0.2,0.2-0.2,0.3
		c-0.1,0.1-0.2,0.2-0.4,0.3c0,0.1,0.1,0.1,0.2,0.1c0.1-0.1,0.1,0,0.1,0.3v0.1c-0.1,0.1-0.1,0.4-0.1,0.7c0,0.2,0,0.4-0.1,0.5h-0.1
		c0,0.1,0,0.2-0.1,0.3c-0.1,0.1-0.1,0.2-0.1,0.3c0,0,0,0.1,0,0.2c0,0.1,0,0.1,0,0.2l-0.2-0.2c-0.1,0.1-0.3,0.1-0.5,0
		c0-0.1-0.1-0.1-0.3-0.1c-0.1,0-0.1,0.1-0.1,0.2h-0.1L15,46.4c-0.1,0.1-0.2,0.2-0.1,0.3v0.7v0.1v0.1V48c-0.1,0-0.2,0-0.2,0.1v0.1
		c0.1,0.4,0,0.6-0.3,0.7c0,0-0.1,0.1-0.1,0.3c0,0.2,0,0.4-0.1,0.4V50c0.1,0,0.2,0,0.3-0.1c0,0.2,0,0.3,0.1,0.5h-0.3
		c-0.1,0-0.2,0.1-0.2,0.2c0,0.1-0.1,0.2-0.1,0.2c0,0.1,0,0.2-0.1,0.2c-0.1,0-0.1,0.1-0.1,0.2l-0.1,0.1v0.1c0,0.1,0.1,0.3,0.1,0.6
		v0.2c0.1,0,0.1,0,0.2,0.1c0,0.1,0.1,0.1,0.2,0.2c-0.1,0.1-0.1,0.2-0.2,0.3c0,0.1-0.1,0.2-0.2,0.2c0,0.2-0.2,0.3-0.5,0.3
		c-0.1,0-0.2,0.1-0.2,0.2c-0.1,0.1-0.1,0.1-0.2,0.2c0,0.1,0,0.1,0,0.1c0,0,0,0,0,0.1c0.2,0.2,0.2,0.3-0.1,0.3l-0.1,0.1
		c0.1,0.1,0.1,0.4,0.1,0.8v0.2c-0.1,0.1-0.2,0.2-0.3,0.3c-0.1,0.1-0.2,0.2-0.3,0.3v0.1c0,0.3-0.1,0.5-0.3,0.6v0.1h-0.1
		c0,0.2,0,0.4,0,0.5v0.3l0.1,0.1v-0.3h0.1v0.3c0,0,0,0.1,0.1,0.1c0,0,0,0.1,0.1,0.1c0,0.1,0.1,0.2,0.4,0.2c0,0.1,0,0.1-0.1,0.2
		c-0.1,0-0.1,0-0.2-0.1c0,0.1-0.1,0.2-0.1,0.3c0,0.3-0.2,0.5-0.5,0.5c-0.1,0-0.2-0.1-0.2-0.1c0,0-0.1,0-0.3,0.1c0,0.1,0,0.2-0.1,0.2
		c-0.1,0.1-0.2,0.1-0.3,0.2c0.1,0.1,0.2,0.2,0.2,0.2c0.1,0,0.1,0.1,0.2,0.2c-0.1,0.1-0.2,0.2-0.3,0.2c0,0.1,0,0.1-0.1,0.2
		c0,0,0,0.1,0.1,0.2c0,0.2-0.1,0.3-0.2,0.3c-0.1,0-0.1,0.1-0.1,0.3c-0.3,0.3-0.3,0.5,0,0.8c0,0.1,0,0.2,0,0.3c0,0.1-0.1,0.2-0.4,0.2
		c0.1,0,0.1,0,0.1,0.1c0,0.1,0,0.1,0.1,0.1v0.1c0,0.1,0.1,0.1,0.2,0.1c-0.1,0-0.2,0.1-0.2,0.2h-0.1c-0.1,0.2-0.3,0.3-0.5,0.2
		c0,0,0-0.1,0.1-0.1c0,0,0-0.1,0.1-0.1c0.2-0.2,0.1-0.5-0.1-0.8L10,61.9H9.9l-0.1,0.1v0.3H9.5c0,0.1,0,0.2,0.1,0.3
		c0,0.1,0,0.2-0.1,0.3h0.1c0,0,0.1,0.1,0.1,0.1H9.5c0,0-0.1,0-0.1,0.1c0,0.1,0.1,0.1,0.2,0v0.2h0.3c0.1,0.1,0.2,0.1,0.3,0.1
		c-0.1,0.1-0.2,0.2-0.2,0.3c-0.1,0-0.1-0.1-0.1-0.1c0,0,0-0.1-0.1-0.1c-0.1,0-0.2-0.1-0.3,0c-0.1,0-0.2,0-0.3,0
		c0.1,0.1,0.1,0.1,0.1,0.2c0,0,0,0.1,0.1,0.2c-0.1,0.2-0.2,0.2-0.3,0c-0.1,0-0.2,0-0.2,0.1c0,0.1,0,0.2,0,0.3v0.4H9v-0.2h0.2
		c0.1-0.1,0.2-0.1,0.2-0.1c0.1,0,0.1,0,0.2-0.1h0.1c0,0.1,0,0.1-0.1,0.1c0,0-0.1,0.1-0.1,0.2c-0.1,0.1-0.1,0.2-0.1,0.3
		c-0.1,0.1,0,0.2,0.1,0.2c0,0.1,0,0.2,0,0.3c-0.1,0-0.2,0-0.2-0.1c-0.1,0.1-0.2,0.2-0.3,0.2c0,0-0.1,0-0.3-0.1c0.2,0,0.3,0,0.4-0.1
		c-0.1,0-0.3-0.1-0.4-0.1c0,0.1,0,0.2-0.1,0.3l-0.1,0.1c-0.1,0.1-0.1,0.2-0.1,0.2c-0.2,0-0.3-0.1-0.3-0.2v0.4l-0.1,0.1H8.1
		c0,0.2,0,0.3,0.1,0.3C8.1,66.5,8,66.6,8,66.6C8,66.8,8,66.9,7.8,67C8,67.1,8,67.1,8,67.2c0,0-0.1,0.1-0.4,0.3H8c0,0,0.1,0,0.1,0
		c0,0,0,0,0.1,0c-0.1,0.2-0.2,0.4-0.4,0.4c-0.2,0.1-0.3,0.2-0.4,0.3c0,0.1,0,0.3,0,0.5v0.5c0,0.1,0.1,0.2,0.2,0.2H8c0,0,0.1,0,0.2,0
		c0.1,0,0.1,0.1,0.2,0.2H8H7.4c-0.1,0-0.2,0-0.3,0.1c-0.1,0-0.2,0.1-0.3,0.1h0.3C7,70,6.9,70.1,6.9,70.1c0,0-0.1,0-0.1,0.1
		c0,0.1,0,0.1-0.1,0.2c0,0,0,0.1,0.1,0.2c-0.1,0.3-0.1,0.4,0.1,0.4c0,0.1-0.1,0.2-0.2,0.3c-0.1,0.1-0.2,0.2-0.1,0.3
		c-0.1,0-0.2,0.1-0.2,0.2v0.2c0.1,0,0.1,0,0.1,0.1c0,0.1,0.1,0.1,0.1,0.2c0,0,0,0.1-0.1,0.2v0.4v0.3c0,0.1,0.1,0.1,0.1,0.1
		c0,0,0.1,0,0.2,0.1v0.5H6.6H6.5c0.1-0.1,0.1-0.2,0.1-0.4c-0.2-0.2-0.3-0.1-0.4,0.2c0,0,0,0.1,0.1,0.1h0.1c-0.2,0-0.4,0.1-0.5,0.3
		c-0.1,0-0.1,0-0.1,0.1c0,0,0,0.1-0.1,0.1c0,0-0.1,0.1-0.2,0.2c-0.1,0.1-0.1,0.2-0.1,0.3c0,0,0,0.1-0.1,0.1H5.2
		c-0.2,0.1-0.3,0.2-0.3,0.2c0,0-0.1,0.1-0.2,0.1c0,0.1-0.1,0.3-0.1,0.4c0,0.1,0,0.1-0.1,0.1H4.4c-0.1-0.1-0.1-0.2-0.2-0.2
		c0,0-0.1,0-0.2,0.1c0,0.2,0.1,0.3,0.3,0.3c0,0,0.1,0.1,0.3,0.1c0.1,0,0.2-0.1,0.3,0c0.1,0,0.2,0,0.3,0c0,0.2,0,0.3,0,0.3
		c0,0-0.1,0.1-0.4,0.2c0-0.1-0.1-0.2-0.1-0.2c-0.1,0-0.2,0-0.2,0.1c0,0.1-0.1,0.3-0.2,0.6c0,0.1,0,0.1,0,0.1c0,0,0,0,0,0.1
		c0.1,0,0.2,0,0.2,0.1c0-0.1,0-0.1,0.1-0.1c0,0,0.1,0,0.1-0.1c0,0,0.1,0,0.2,0s0.1,0,0.2-0.1c-0.2,0.1-0.4,0.1-0.4,0.1v-0.1
		c0-0.1,0-0.2,0.1-0.2c0.1,0.1,0.2,0.1,0.3,0.1c0.1,0,0.2-0.1,0.3-0.1c0.1,0,0.2,0,0.3,0.1c0,0.1,0,0.1-0.1,0.2c0,0-0.1,0.1-0.1,0.2
		c0-0.1-0.1-0.2-0.1-0.2c-0.1,0-0.1,0.1-0.1,0.1v0.1C5.3,77,5.1,77,4.9,77c0,0-0.1,0.1-0.1,0.3C5,77.3,5,77.2,5,77.1h0.7
		c0,0.1,0,0.1,0,0.2c0,0,0,0.1,0,0.2c-0.2,0-0.2,0.1-0.1,0.2c0,0.1-0.2,0.2-0.5,0.2l-0.1-0.1c0,0,0,0-0.1,0c-0.1,0-0.1,0-0.1,0.1
		c0,0.1,0,0.1,0.1,0.1C4.9,78,5,78,5.2,78h0.2c-0.1,0.1-0.2,0.3-0.3,0.4c-0.1,0.1-0.2,0.2-0.3,0.3l-0.1,0.1c0,0.1,0,0.2-0.1,0.3
		c0,0.1-0.1,0.2-0.1,0.3c-0.1,0-0.2,0.2-0.3,0.4v0.1c0,0-0.1,0.1-0.2,0.1c0,0.3-0.1,0.5-0.3,0.7c-0.1,0.1-0.2,0.3-0.3,0.4
		c-0.1,0.2-0.3,0.3-0.6,0.3c-0.1,0-0.2,0-0.2,0.1c0,0-0.1,0.1-0.2,0.1H2.1c0-0.1-0.2-0.1-0.4-0.1c-0.2,0-0.4-0.2-0.6-0.5v-0.1
		c0,0,0-0.1,0-0.1c0,0,0-0.1,0-0.1c0,0-0.1-0.1-0.1-0.1l-0.1-0.1c0-0.5,0-0.9,0.1-1.1c0-0.2,0.1-0.4,0.1-0.6c0-0.2,0.1-0.3,0.1-0.4
		c-0.1-0.1-0.1-0.2-0.1-0.3c0-0.1,0.1-0.2,0.1-0.3c0,0,0-0.1,0-0.2c0-0.1,0-0.2,0-0.4c0-0.1-0.1-0.2,0-0.3c0-0.1,0-0.3,0-0.4
		c0.1,0,0.2-0.1,0.2-0.3c0,0,0-0.1-0.1-0.1c0,0,0,0,0.1,0c0-0.1,0.1-0.2,0-0.3c0-0.1,0-0.2,0-0.3c0-0.1,0.1-0.2,0.1-0.4
		c0.1,0,0.2-0.1,0.2-0.2c0-0.1,0.1-0.2,0.1-0.3v-0.3c0.1,0,0.1-0.1,0.1-0.2c0-0.1,0-0.1,0.1-0.2v-0.7v-0.1c-0.1-0.2-0.1-0.4-0.1-0.7
		c0-0.2,0-0.4,0-0.5C2,71.6,2,71.4,2,71.1c0-0.2,0-0.4,0.1-0.7c0-0.4,0-0.6,0.1-0.7c0-0.2,0-0.3,0.1-0.4c0-0.4,0-0.6,0.1-0.8
		c0-0.2,0-0.4,0.1-0.6c0-0.2,0.1-0.3,0.1-0.5c0.1-0.2,0.1-0.4,0.1-0.5v-0.6c0-0.3,0-0.5,0.1-0.7c0-0.1,0-0.3,0.1-0.4
		C3,65.1,3,65,3,64.8c0-0.2,0-0.3,0.1-0.5c0.1-0.2,0.2-0.3,0.2-0.6c0.1-0.1,0.2-0.3,0.2-0.4c0-0.2,0.1-0.3,0.1-0.6
		c0.1-0.1,0.1-0.2,0.1-0.3c0-0.1,0-0.2,0.1-0.3c0-0.1,0-0.2,0.1-0.3C4,61.7,4,61.6,4,61.5c0-0.2,0-0.4,0-0.6c0-0.2,0-0.4,0-0.6
		c0-0.1,0-0.2,0.1-0.2c0.1,0,0.1-0.1,0.1-0.2c0.1-0.1,0.1-0.2,0.2-0.4c0-0.2,0.1-0.3,0.2-0.5c0,0,0.1,0,0.1-0.1
		c0.1-0.1,0.1-0.2,0.2-0.3c0-0.1,0.1-0.2,0.2-0.3c0-0.2,0-0.3,0.1-0.4c0.1-0.1,0.1-0.2,0.1-0.3v-0.1c0.1-0.1,0.1-0.3,0.2-0.5
		c0-0.2,0.1-0.4,0.1-0.5c0.1-0.3,0.1-0.5,0.2-0.7c0-0.2,0.1-0.4,0.2-0.7c0-0.1,0-0.2,0.1-0.3c0-0.1,0-0.2,0-0.3c0-0.1,0-0.2,0-0.3
		c0.2-0.2,0.3-0.5,0.3-0.7c0.1-0.1,0.1-0.3,0.2-0.5c0-0.2,0.1-0.4,0.2-0.6c0-0.2,0-0.3,0.1-0.3c0-0.2,0.1-0.5,0.2-0.7
		c0.1-0.2,0.2-0.5,0.3-0.7c0.1-0.3,0.2-0.6,0.3-0.9c0-0.1,0-0.2,0.1-0.3c0-0.1,0.1-0.2,0.1-0.3c0-0.1,0-0.2,0.1-0.3
		c0-0.1,0.1-0.2,0.1-0.3C7.9,48.2,8,48.1,8,47.9c0-0.2,0.1-0.4,0.1-0.6c0.1-0.1,0.1-0.2,0.1-0.3c0-0.1,0-0.2,0.1-0.3
		c0.1-0.1,0.1-0.4,0.1-0.7c0-0.1,0-0.2,0.1-0.3c0-0.1,0.1-0.2,0.1-0.3l0.1-0.1c0-0.1-0.1-0.2,0-0.3c0-0.1,0-0.2,0-0.3
		c0-0.3,0-0.4,0.1-0.5v-0.3c0-0.2,0.1-0.4,0.3-0.4c0-0.1,0.1-0.2,0.1-0.3c0-0.1,0.1-0.2,0.1-0.3v-1c0-0.1,0-0.2,0.1-0.3
		c0-0.1,0.1-0.2,0.1-0.4c0-0.2,0-0.3,0.1-0.4l0.1-0.1c0-0.2,0-0.4,0.1-0.8c0-0.1,0-0.1,0.1-0.1c0,0,0.1,0,0.1-0.1v-0.1
		c0-0.2,0-0.4,0.1-0.6c0.1-0.2,0.1-0.4,0.1-0.6c0-0.1,0-0.3,0-0.4c0-0.1,0-0.2,0-0.2c0,0,0-0.1,0.1-0.1l0.1-0.1c0-0.3,0-0.5,0-0.6
		c0-0.2,0.1-0.3,0.2-0.6V36c0-0.2,0.1-0.4,0.3-0.7c0-0.1,0-0.2,0.1-0.3c0-0.1,0.1-0.2,0.1-0.3c0-0.1,0.1-0.2,0.1-0.3
		c0-0.1,0-0.2,0.1-0.3c0-0.2,0-0.4,0.1-0.5c0-0.5,0-0.8,0.1-0.9c0-0.1,0.1-0.3,0.1-0.4c0-0.1,0-0.2,0.1-0.3c0-0.2,0.1-0.4,0.2-0.5
		s0.1-0.3,0.2-0.5c0-0.1,0-0.2,0-0.2c0,0,0-0.1,0-0.2c0.1-0.2,0.1-0.3,0.2-0.5c0-0.1,0.1-0.3,0.2-0.5v-0.1c0.1-0.2,0.2-0.5,0.3-0.7
		c0.1-0.2,0.2-0.5,0.3-0.7c0,0,0-0.1,0-0.1c0,0,0-0.1,0-0.2c0.1-0.1,0.1-0.2,0.1-0.3c0-0.1,0-0.2,0-0.2c0,0,0-0.1,0-0.2
		c0.1-0.1,0.1-0.2,0.1-0.2c0,0,0-0.1,0.1-0.2c0-0.1,0-0.2,0-0.2c0-0.1,0-0.2,0-0.3c0,0,0-0.1,0.1-0.2c0.1-0.1,0.1-0.1,0.1-0.2
		c0-0.1,0.1-0.4,0.1-0.7c0.1-0.3,0.2-0.6,0.2-0.8c0.1-0.2,0.1-0.4,0.2-0.7c0-0.1,0.1-0.2,0.1-0.4c0.1-0.4,0.3-0.7,0.4-1.1
		c0.1-0.4,0.2-0.7,0.4-1.1c0-0.1,0-0.3,0.1-0.5c0.1-0.2,0.1-0.4,0.2-0.6c0.1-0.2,0.2-0.4,0.2-0.6c0-0.2,0.1-0.4,0.2-0.6
		c0-0.1,0-0.2,0.1-0.3c0-0.2,0-0.4,0.1-0.6c0-0.2,0.1-0.4,0.2-0.6c0-0.3,0.1-0.6,0.2-0.9c0-0.2,0.1-0.4,0.2-0.7
		c0.1-0.2,0.2-0.4,0.3-0.7c0-0.2,0-0.4,0.1-0.5c0-0.2,0.1-0.4,0.1-0.6c0.2-0.4,0.3-0.9,0.5-1.4c0,0,0-0.1,0.1-0.1
		c0,0,0.1-0.1,0.1-0.1c0.1-0.1,0.1-0.3,0.1-0.4c0-0.1,0-0.2,0.1-0.3c0,0,0-0.1,0.1-0.1c0,0,0.1-0.1,0.1-0.2c0.1-0.1,0.2-0.2,0.2-0.4
		c0.1-0.2,0.1-0.3,0.2-0.5c0.1-0.2,0.2-0.5,0.2-0.9c0.1-0.1,0.1-0.2,0.1-0.4c0-0.2,0-0.3,0.1-0.4c0.1-0.3,0.2-0.6,0.2-0.9
		c0.2-0.3,0.3-0.4,0.3-0.5c0-0.2,0.1-0.4,0.3-0.6V6.4c0-0.1,0-0.2,0-0.3c0-0.1,0-0.2,0-0.3c0.1-0.1,0.1-0.2,0.1-0.3
		c0-0.1,0-0.2,0.1-0.3C20,5.1,20,5,20,4.8c0-0.2,0.1-0.3,0.2-0.5c0.3-0.4,0.5-0.9,0.7-1.3C21,2.8,21,2.7,21.1,2.6
		c0-0.1,0.1-0.2,0.1-0.3c0-0.2,0.1-0.3,0.3-0.3c0.1,0,0.1-0.2,0.1-0.3c-0.1,0-0.1-0.1-0.1-0.1c0,0,0.1-0.1,0.1-0.1c0,0,0.1,0,0.2,0
		c0.1,0,0.2-0.1,0.2-0.2c0,0,0.1-0.1,0.3-0.2c0.2,0,0.4-0.1,0.5-0.2c0.1-0.1,0.2-0.2,0.5-0.2h0.3c0.2,0,0.4,0.1,0.5,0.1
		c0.2,0,0.4,0,0.6,0c0,0.1,0.1,0.1,0.2,0.1c0.4-0.1,0.8,0,1.2,0.2c0.1,0,0.1,0.1,0,0.2c0.1,0.1,0.2,0.2,0.3,0.2
		c0.1,0.1,0.3,0.1,0.5,0.2C26.9,1.9,26.8,2,26.8,2c0,0-0.1,0-0.2,0c0,0.1,0.1,0.2,0.3,0.2h-0.1c0,0.2,0.1,0.3,0.3,0.3
		c0,0.1,0,0.2-0.1,0.3c0-0.1,0-0.1-0.1-0.1c0,0-0.1,0-0.1-0.1h-0.2c-0.1,0-0.1,0.1-0.1,0.2c0,0.1,0,0.1,0.1,0.1c0,0,0.1,0,0.1,0
		c0-0.1,0-0.1,0.1-0.1c0.1,0.1,0.1,0.2,0,0.4c0.1,0,0.2,0.1,0.3,0.1c0.1,0,0.2,0,0.2,0c0,0.1,0,0.2-0.1,0.2l-0.3,0.3
		c0,0,0,0.1-0.1,0.1c0,0-0.1,0.1-0.1,0.1h0.1c0,0,0.1,0,0.1-0.1c0,0,0,0.1,0.1,0.1c0,0,0.1,0.1,0.1,0.2c-0.1,0-0.2,0-0.3,0
		c-0.1,0-0.2,0-0.3,0L26,4.6v0.1c0.2,0.1,0.3,0.2,0.3,0.3c0.2,0.3,0.4,0.4,0.5,0.5c-0.1,0-0.1,0-0.2,0.1c0,0-0.1,0.1-0.2,0.1
		c0.1,0.1,0.1,0.2,0.1,0.3s0,0.2,0.1,0.3h0.1v0.3v0.2v0.4c0,0,0,0.1,0.1,0.2c0.1,0.1,0.1,0.1,0,0.2c0,0.1,0,0.2,0.1,0.3
		C27,8,27,8.1,27,8.2h0.1l0.1,0.1c-0.1,0.1-0.1,0.2,0,0.3v0.2c0,0.3,0,0.5,0.1,0.6c0,0.2,0,0.3,0.1,0.4c0.1,0.1,0.1,0.2,0.1,0.3
		c0,0.2,0.1,0.4,0.1,0.5c0,0.2,0.1,0.3,0.2,0.4v0.1l-0.1,0.1h-0.1c0,0.1,0,0.2,0.1,0.2c0,0.1,0.1,0.1,0.1,0.2v0.3
		c-0.2,0.1-0.2,0.2,0,0.5c0,0.1,0.1,0.2,0.1,0.3c0,0.1,0,0.2-0.1,0.4v0.2c0,0.3,0.1,0.5,0.1,0.6c0,0.2,0,0.3,0,0.5v0.1
		c0.1,0.1,0.1,0.3,0.1,0.4c0,0.1-0.1,0.2-0.1,0.3c-0.1,0.1-0.1,0.2,0,0.4c0,0.2,0.1,0.3,0.2,0.4c0.1,0.1,0.1,0.3,0,0.4
		c-0.2,0.2-0.2,0.3,0,0.4c0,0,0.1-0.1,0.1-0.1c0.1,0.3,0,0.5-0.3,0.7c0.1,0.1,0.2,0.3,0.2,0.4c0,0.2,0.1,0.3,0.2,0.4
		c-0.1,0.2-0.3,0.2-0.5,0c-0.1,0-0.2,0-0.2-0.1c0,0-0.1-0.1-0.1-0.1h-0.1c0,0-0.1,0-0.1,0.1v0.1v0.2c0.1,0,0.1,0.1,0.1,0.2
		c0,0.1,0,0.2,0.1,0.2c0,0-0.1,0-0.1,0.1c0,0-0.1,0.1-0.1,0.1c0.2,0,0.2,0.2,0.1,0.6c0,0,0.1,0,0.1,0c0,0,0,0,0.1,0h0.1v0.8
		c0.1,0,0.2,0,0.3,0.1c0,0-0.1,0.1-0.2,0.1h-0.1c0.1,0,0.2,0,0.2,0.1c0.1,0,0.2,0.1,0.3,0.1v0.1c-0.1,0-0.2,0-0.3,0
		c-0.1,0.1-0.1,0.1-0.2,0.2c0,0-0.1,0-0.1-0.1c-0.1,0-0.1,0.1-0.1,0.2c0,0.1,0,0.2-0.1,0.2c0.1,0.1,0.2,0.1,0.3,0.2
		c0.1,0,0.3,0.1,0.4,0.1c-0.1,0.1-0.2,0.1-0.3,0.1c-0.1,0-0.2,0-0.3,0.1c-0.1,0.1-0.1,0.2-0.2,0.4c0,0.2,0,0.3,0,0.4h0.1
		c0.1,0,0.1,0,0.1,0.1v0.1h-0.2c-0.1,0-0.1,0-0.1,0c0,0,0,0-0.1,0c0.1,0.1,0.2,0.2,0.2,0.2c0.1,0,0.1,0.1,0.1,0.2c0,0,0,0.1,0.1,0.1
		c0,0,0,0.1-0.1,0.2c0,0-0.1,0.1-0.1,0.2c0,0.2-0.1,0.3-0.4,0.3c0,0.2,0,0.4,0.1,0.4c0,0,0.2,0.1,0.6,0.1v0.1h0.3
		c-0.1,0.3-0.2,0.4-0.4,0.4c0.1,0,0.1,0.1,0.1,0.2c0,0.1-0.1,0.1-0.1,0.2v0.5h0.1l0.1,0.1c0,0.1,0,0.2-0.1,0.3c0,0-0.1,0-0.1-0.1
		v-0.1v0.3c-0.3,0.2-0.4,0.4-0.1,0.6c0,0,0.1-0.1,0.1-0.1c0-0.1,0-0.2,0.1-0.3c0.1,0.2,0.1,0.4,0.2,0.5c0,0.1,0,0.2-0.2,0.3
		c0-0.1-0.1-0.1-0.2,0s-0.1,0.1-0.2,0c0,0.1,0,0.2-0.1,0.3c0,0.1,0,0.2,0.1,0.3c0,0.1,0,0.2,0.1,0.2c0,0.2,0,0.4,0,0.7
		c0,0,0.1,0.2,0.1,0.5c0,0.2,0.1,0.4,0.2,0.5c0,0,0,0.1-0.1,0.1c-0.1,0-0.1,0.1,0,0.2c-0.1,0-0.1,0.1-0.1,0.3c0,0.1,0,0.2-0.1,0.3
		c0.1,0.2,0.1,0.3,0,0.3c-0.1,0-0.1,0-0.1,0c0,0,0,0-0.1,0c0.1,0.1,0.2,0.2,0.2,0.2c0,0,0.1,0.1,0.1,0.2c0,0,0,0.1,0,0.1
		c0,0,0,0,0,0.1V32c0,0.1,0.1,0.1,0.2,0.1c0,0,0,0.1,0,0.2c-0.1,0.2-0.2,0.3-0.2,0.5c-0.1,0.1-0.1,0.3-0.1,0.5v0.1v0.2
		c-0.1,0-0.2,0-0.4,0.1c0.1,0,0.2,0,0.2,0.1c0,0,0.1,0.1,0.2,0.1c-0.1,0.1-0.2,0.1-0.2,0.1c0,0-0.1,0-0.2,0.1v0.1
		c0.1,0,0.2,0.1,0.4,0.1c-0.1,0.1-0.1,0.2-0.2,0.3c0,0.1,0,0.2,0.2,0.3c-0.1,0.1-0.1,0.1-0.1,0.2c0,0,0,0.1-0.1,0.2
		c-0.1,0-0.2,0-0.2,0.1c0,0.2,0.1,0.4,0.2,0.5c0.1-0.1,0.2-0.2,0.3-0.1L27,35.7h-0.1c-0.1,0-0.1,0.1-0.1,0.1c0,0,0,0.1-0.1,0.1
		c-0.1,0-0.1,0.1,0,0.3h0.1v0.3c-0.1,0.1-0.2,0.2-0.1,0.3c0.1,0,0.2,0,0.2,0c0,0,0.1,0,0.2,0.1h-0.4c0,0,0,0.1-0.2,0.3
		c0.1,0.1,0.1,0.2,0.2,0.2c0,0,0.1-0.1,0.2-0.2l0.1,0.1v0.1c-0.2,0.3-0.3,0.5-0.3,0.6c0,0.1,0,0.2-0.1,0.2c0,0-0.1,0.1-0.1,0.2
		c0.1,0,0.2,0.1,0.3,0.2h-0.1l-0.1,0.1c0.1,0,0.1,0.1,0.2,0.1c0,0,0.1,0,0.2,0.1h-0.1l-0.1,0.1H27v0.2c-0.1,0-0.2,0-0.2,0
		c0,0-0.1,0-0.2,0c-0.1,0.2-0.2,0.3-0.3,0.3v0.4c0,0,0,0.1,0.1,0.1c0,0,0,0.1,0.1,0.1c0,0.1,0.1,0.1,0.1,0.1c0,0,0,0-0.1,0.1v0.4
		h-0.2V41h0.1c-0.1,0.3-0.1,0.6,0.1,0.7l-0.2,0.2c0.1,0,0.2,0.1,0.2,0.1v0.4c-0.1,0.1-0.2,0.2-0.1,0.3v0.2c-0.1-0.1-0.1-0.2-0.2-0.2
		c0-0.1-0.1-0.1-0.2,0c0,0-0.1,0-0.1,0c0,0-0.1,0-0.2,0c0.1,0.1,0.2,0.1,0.3,0.2c0.1,0,0.2,0.1,0.3,0.2c0,0,0,0.1-0.1,0.2
		c0,0.1,0,0.1,0.1,0.2v-0.3l0.1-0.1h0.1c0.1,0,0.1,0.1,0.1,0.1c0,0,0,0.1,0.1,0.1c-0.2,0.1-0.3,0.2-0.3,0.3
		c-0.2,0.1-0.3,0.1-0.3,0.2c0,0,0,0.1,0,0.4h-0.1c0,0,0,0.1-0.1,0.1c0,0-0.1,0.1-0.1,0.1c0.1,0.1,0.2,0.2,0.2,0.3h-0.1v0.1h0.2
		c-0.1,0.1-0.1,0.2-0.1,0.3c0,0,0,0.1-0.1,0.2h-0.1c0,0,0,0.1,0,0.1c0.1,0,0.1,0.1,0.1,0.2c0,0,0.1,0,0.1-0.1c0,0,0.1,0,0.1,0.1
		c0,0,0.1-0.1,0.1-0.1c0.1,0,0.2,0,0.3,0.1c-0.1,0-0.2,0-0.2,0c0,0-0.1,0-0.2,0c0,0.2,0,0.4,0,0.5c0,0.1,0,0.2-0.1,0.3v0.1h0.1
		c0-0.1,0-0.1,0.1-0.1c0,0,0.1,0,0.1-0.1H26.9z M3.9,76.1c0.2-0.4,0.2-0.7-0.1-1c-0.1,0.1-0.1,0.2-0.2,0.2c0,0-0.1,0.1-0.2,0.2
		c0.1,0.2,0.2,0.4,0.2,0.5l-0.2,0.3v0.1c0.2,0,0.3,0,0.3,0.1c0,0.1,0.1,0.2,0.2,0.2C4.1,76.6,4,76.4,3.9,76.1z M4.5,74.7v-0.1H4.4
		C4.4,74.6,4.4,74.7,4.5,74.7z M5.4,75.7h0.2c-0.1,0.1-0.1,0.2,0,0.2c0.1,0.1,0.1,0.1,0,0.2C5.5,76.1,5.4,76,5.4,75.7z M6.2,75.9
		C6.1,76,5.9,76,5.7,75.8c0.1-0.1,0.2-0.2,0.3-0.1C6.1,75.7,6.1,75.8,6.2,75.9z M7.2,71.9L7.2,71.9h0.2H7.4c0,0-0.1,0-0.1,0.1
		L7.2,71.9L7.2,71.9z M8,69.3c0-0.1,0.1-0.2,0.2-0.2c0.1,0,0.1,0,0.2-0.1C8.4,69.2,8.3,69.3,8,69.3z M8.4,67.3c0,0.1,0,0.2-0.1,0.2
		v-0.1L8.4,67.3z M8.6,64.8v0.5c0.1-0.1,0.2-0.2,0.2-0.2c0.1,0,0.1-0.1,0-0.3H8.6z M9.4,64.8v-0.1c-0.1,0-0.2,0-0.3,0.1H9.4z
		 M9.8,64.8H9.6c0-0.1,0.1-0.1,0.2-0.1V64.8z M10.1,64.8H9.9l0.3-0.3v-0.1c0,0,0-0.1,0-0.1c0,0,0,0,0-0.1
		C10.3,64.3,10.3,64.5,10.1,64.8z M10.5,61.7v-0.3c-0.1,0-0.2,0-0.2,0.1c0,0.1,0,0.1-0.1,0.2H10.5z M10.5,63.7v0.3
		c0.1-0.1,0.2-0.2,0.2-0.3c0-0.1,0.2-0.1,0.3-0.1c0,0.2-0.1,0.4-0.3,0.6h-0.3c0-0.1,0-0.2-0.1-0.2c0,0-0.1-0.1-0.1-0.2
		C10.3,63.8,10.3,63.7,10.5,63.7z M10.6,60.4c-0.2,0.2-0.2,0.3-0.1,0.3C10.5,60.7,10.6,60.6,10.6,60.4z M11,59.4l-0.1,0.1v0.1
		c0.1,0.1,0.2,0.1,0.2,0.1v-0.1c0,0,0-0.1,0-0.1C11,59.5,11,59.5,11,59.4z M11.2,60.2c0.2-0.2,0.5-0.3,0.9-0.1
		c0,0.1-0.1,0.1-0.2,0.1s-0.2,0-0.3,0.1h-0.1h-0.1c0,0-0.1,0-0.1-0.1C11.3,60.2,11.2,60.2,11.2,60.2z M11.5,60.7
		c0.1-0.1,0.2-0.1,0.2-0.1v0.1H11.5z M11.6,61.3c0-0.1,0-0.2-0.1-0.2C11.6,61.2,11.6,61.2,11.6,61.3z M12.3,58.3
		c0-0.2-0.1-0.3-0.1-0.4c0-0.1-0.1-0.1-0.3-0.1c-0.1,0-0.2,0.1-0.2,0.2c0.1,0.1,0.2,0.2,0.3,0.2C12.1,58.3,12.2,58.3,12.3,58.3z
		 M12.1,59.7c0.2-0.1,0.3-0.2,0.3-0.2c0-0.1,0.1-0.1,0.1-0.1c0,0,0.1,0.1,0.1,0.1C12.5,59.7,12.3,59.7,12.1,59.7z M13,56.1
		c0,0.1,0,0.2,0,0.3c0,0-0.1,0.2-0.4,0.4c-0.2,0-0.2-0.1-0.1-0.2c0-0.1,0-0.1,0.1-0.1c0.1,0,0.2,0,0.3,0c0-0.1-0.1-0.2-0.1-0.4
		c0.2,0,0.3-0.1,0.3-0.3h0.3c-0.1,0.1-0.2,0.2-0.2,0.3C13.2,56.1,13.1,56.1,13,56.1z M12.9,54.9L12.9,54.9h-0.2l-0.1,0.1
		C12.8,54.9,12.9,54.9,12.9,54.9z M13.3,56.5c0,0.1-0.1,0.2-0.2,0.3C13.1,56.6,13.1,56.5,13.3,56.5z M13.4,55.1
		c0.1,0.1,0,0.2-0.1,0.2C13.3,55.2,13.3,55.1,13.4,55.1C13.4,55.1,13.4,55.1,13.4,55.1z M13.6,55.1c0-0.1,0-0.2,0-0.3V55.1z
		 M14.2,48.2c0.1,0,0.1-0.2,0.1-0.3H14C14.1,48.1,14.2,48.2,14.2,48.2z M14.7,50.5c0.1,0.5,0.2,0.9,0.2,1.2c0,0-0.1,0.1-0.1,0.1
		c0,0-0.1,0-0.2-0.1c0,0.1,0,0.1-0.1,0.1c0,0-0.1,0-0.1,0.1c0,0,0-0.1,0-0.2c0-0.1,0-0.2,0-0.3c0.1,0,0.2,0,0.2,0.1
		c0.1,0,0.1,0,0.2-0.1c-0.1,0-0.1,0-0.1-0.1c0,0,0-0.1-0.1-0.1c-0.3,0-0.4-0.1-0.1-0.3C14.4,51,14.5,50.9,14.7,50.5z M15.2,47.2h0.5
		c0,0.1,0,0.2-0.1,0.3h-0.2c0,0-0.1,0.1-0.2,0.1c0,0-0.1,0-0.1-0.1v-0.1C15.2,47.3,15.2,47.2,15.2,47.2z M15.2,51.3L15.2,51.3
		l-0.1,0.1C15.2,51.4,15.2,51.3,15.2,51.3z M15.6,45.3c0,0,0,0.1-0.1,0.2c0,0.1,0,0.2,0.1,0.2V45c0,0.1-0.1,0.1-0.2,0.1
		c-0.1,0-0.1,0-0.1,0.1l-0.1,0.1v0.1c0.1,0,0.2,0.1,0.1,0.2c0,0.1-0.1,0.2-0.1,0.2c0,0,0-0.1,0-0.2C15.5,45.5,15.5,45.4,15.6,45.3z
		 M15.6,46.2h0.5v0.3h-0.7C15.6,46.5,15.7,46.4,15.6,46.2z M15.7,49.4c0,0-0.1,0-0.1,0c0,0-0.1,0-0.2,0c0.1-0.1,0.2-0.1,0.3-0.1
		V49.4z M15.6,49.8c0-0.2,0.1-0.2,0.2-0.2C15.7,49.7,15.7,49.8,15.6,49.8z M15.8,48.9c0-0.1,0-0.2-0.1-0.3c-0.1-0.1-0.1-0.2,0-0.3
		c0.1,0,0.2,0,0.2,0.1C16,48.5,16,48.7,15.8,48.9z M16.2,46.8h-0.5v-0.1L16.2,46.8L16.2,46.8z M15.9,43.1c0.2-0.2,0.3-0.4,0.3-0.6
		v0.2h-0.3c0,0,0,0.1,0,0.2C15.9,43,15.9,43,15.9,43.1z M16.4,41.2c0.2,0,0.3,0,0.4,0.1V41c0.1,0,0.2,0,0.2-0.1
		c-0.1-0.1-0.3-0.1-0.6-0.1c-0.1,0-0.3,0-0.4,0.1c0.1,0.1,0.2,0.2,0.2,0.3l-0.1,0.1v0.1c0,0,0.1,0,0.1,0.1c0,0,0,0.1,0.1,0.1
		c0,0,0-0.1,0-0.1C16.4,41.4,16.4,41.3,16.4,41.2z M16.4,44.4c-0.1,0.1-0.1,0.2-0.2,0.2c0,0.1-0.1,0.1-0.1,0.2
		c0.1-0.1,0.2-0.1,0.3-0.1c0.1,0,0.2,0,0.3-0.1c0-0.1,0-0.2-0.1-0.3l-0.1-0.1c0-0.1,0-0.2-0.1-0.2c-0.1,0-0.1-0.1-0.2-0.2
		c-0.2,0.2-0.3,0.4-0.3,0.4h0.2v-0.1c0,0,0.1-0.1,0.1-0.1C16.4,44.3,16.4,44.4,16.4,44.4z M16.2,46.8c0,0.1,0,0.2,0,0.2
		c0,0,0,0.1,0,0.2h-0.1V46.8z M16.2,41.7c0,0.1,0,0.2,0.2,0.3c0,0,0-0.1,0.1-0.2C16.5,41.8,16.5,41.7,16.2,41.7z M16.2,40.1
		c0.1,0.1,0.3,0.1,0.4,0c-0.1-0.1-0.2-0.2-0.3-0.2V40L16.2,40.1z M16.8,42.7h-0.1c-0.1,0.1-0.1,0.2,0,0.2c0,0.1,0,0.2,0.1,0.2h0.1
		h0.3h0.1c0-0.2,0-0.3-0.1-0.3C17,42.8,16.9,42.8,16.8,42.7z M16.8,38.6c0.1,0,0.2,0,0.3,0c0.1,0,0.2,0,0.3,0
		c-0.1-0.1-0.1-0.2-0.1-0.5c0,0-0.1,0.1-0.2,0.1c-0.1,0-0.1,0.1-0.1,0.2c-0.1,0-0.2,0-0.2,0c0,0-0.1,0-0.1,0
		C16.6,38.6,16.7,38.6,16.8,38.6z M19.2,35.1c0.1,0,0.2,0,0.2-0.1c0.1,0,0.1-0.1,0.2-0.1l0.2,0.2c0.1,0,0.2-0.1,0.2-0.1
		c0.1,0,0.1-0.1,0-0.3h-0.3v-0.1c0,0,0.2-0.1,0.4-0.3c0,0,0-0.1-0.1-0.1c0,0-0.1-0.1-0.1-0.1h-0.2c0.1-0.2,0.2-0.4,0.3-0.5v-0.3
		c0.1,0,0.2-0.1,0.2-0.1c0,0,0-0.1,0-0.1c0-0.1,0-0.1,0-0.1c0,0,0,0,0-0.1c0,0,0-0.1-0.1-0.2c0,0,0.1,0,0.1-0.1c0,0,0.1-0.1,0.1-0.1
		c0-0.1-0.1-0.2-0.2-0.3c0,0,0-0.1,0.1-0.1c0,0,0-0.1,0.1-0.1c0-0.1,0.1-0.1,0.2-0.1s0.1,0,0.2-0.1c0-0.2,0-0.3,0.1-0.4h-0.3
		c0.1-0.1,0.1-0.2,0.1-0.3c0-0.1,0-0.2,0.1-0.3h-0.5c0,0-0.1,0.1-0.2,0.1c-0.1,0-0.2,0-0.3,0.1c0.1,0.1,0.2,0.1,0.1,0.2
		c-0.1,0-0.1,0.1-0.2,0.2c0.1,0,0.1,0.1,0.1,0.1c0,0-0.1,0.1-0.1,0.1c-0.1,0-0.2,0.1-0.3,0.1h0.1c0,0.1,0,0.1,0,0.2c0,0,0,0.1,0,0.1
		L19.8,32c-0.1,0.1-0.3,0.2-0.5,0.2c-0.2,0-0.3,0.1-0.3,0.3c0,0.1,0.1,0.1,0.1,0c0-0.1,0-0.1,0.1,0v0.3H19c-0.1,0-0.1,0.1-0.1,0.1
		c0,0,0,0.1-0.1,0.1v0.2c0,0.2,0,0.4-0.1,0.5c-0.1,0.1-0.1,0.2-0.1,0.3h-0.3c-0.1,0-0.2,0.1-0.3,0.2c0,0.1,0,0.2-0.1,0.2
		c0,0-0.1,0.1-0.1,0.2c0,0,0.1,0.1,0.1,0.3c0.1,0,0.1,0.1,0,0.3c0.1,0,0.2-0.1,0.3-0.1c0,0,0,0.1-0.1,0.1c0,0-0.1,0-0.1,0.1
		c0.1,0.1,0.2,0.2,0.3,0.3c0.1,0.1,0.2,0.1,0.3,0c0.1,0,0.1,0,0.1,0.1c0,0,0,0.1,0.1,0.1c0,0-0.1,0.1-0.1,0.1h-0.1c0,0-0.1,0-0.2,0
		h-0.3h-0.1L18,35.7c0,0-0.2,0.1-0.5,0.2l-0.1-0.1V36c0.1,0,0.2,0,0.3,0.1c0.1,0,0.2,0,0.3-0.1l0.1,0.1c-0.1,0.1-0.2,0.2-0.3,0.2
		c-0.1,0-0.2,0.1-0.3,0.3c0,0.1,0,0.2,0.1,0.3H17v0.3h0.3v0.3h-0.4c0.1,0.1,0.2,0.1,0.2,0.1c0.1,0,0.1,0,0.2,0.1
		c0.1,0,0.2-0.1,0.1-0.2c-0.1-0.1-0.1-0.1,0-0.2l0.1,0.1v0.1h0.3c0-0.1,0-0.2,0.1-0.2c0.1,0,0.1-0.1,0.1-0.2
		c0.2-0.2,0.2-0.4,0.1-0.6h0.1c0.1,0,0.2,0,0.3-0.1c0.1-0.1,0.1-0.2,0.2-0.2c0.1-0.1,0.2-0.1,0.3-0.1c-0.1-0.3,0-0.4,0.3-0.4h0.3
		c0,0,0-0.1,0-0.1c0,0,0,0,0-0.1c0,0-0.1,0-0.1-0.1c0-0.2,0.1-0.2,0.2-0.2c0.1,0.1,0.2,0,0.2-0.2c-0.1,0-0.2,0-0.3,0
		C19.4,35.1,19.3,35.1,19.2,35.1z M17,38.9c-0.1,0.1-0.1,0.2,0,0.3V38.9z M17,36.5C17,36.5,17,36.6,17,36.5c0,0.1,0,0.2,0,0.2V36.5z
		 M17,39.7c0-0.2,0-0.3,0.1-0.3C17,39.4,17,39.5,17,39.7z M17.6,40.8c-0.2,0-0.4-0.1-0.4-0.1c0,0-0.1,0-0.2,0.1
		c0.1,0.1,0.2,0.2,0.2,0.3c0,0.1,0.1,0.2,0.3,0.3c0-0.1,0-0.2,0.1-0.3C17.6,41,17.6,40.9,17.6,40.8z M19.2,35.1c0,0,0,0.1-0.1,0.2
		H19c0,0,0,0.1-0.1,0.2c0-0.2-0.1-0.4-0.3-0.4c0-0.1,0.1-0.1,0.3-0.1v-0.2H19l0.1,0.1c0,0-0.1,0-0.1,0.1v0.1
		C19,35.2,19.1,35.2,19.2,35.1z M19.1,33.4c0,0.1-0.1,0.2-0.2,0.2v-0.1v-0.1C18.9,33.3,18.9,33.3,19.1,33.4z M20.5,30.4h-0.4
		C20.2,30.5,20.3,30.5,20.5,30.4z M20.7,29.7c0,0.1-0.1,0.1-0.2,0.1V30C20.6,30,20.7,29.9,20.7,29.7z M21.5,28
		c-0.1-0.1-0.2-0.1-0.3-0.1c-0.1,0-0.2,0-0.3-0.3v0.1c0,0,0,0.1,0,0.1c0,0,0,0.1,0,0.1h-0.1L20.7,28c0.1,0.1,0.2,0.1,0.3,0.1
		C21.1,28,21.3,28,21.5,28L21.5,28z M20.7,28.6v0.1c0.1,0.1,0.2,0.1,0.3,0.2c0.1,0,0.2,0.1,0.3,0.1c0-0.2,0-0.3-0.1-0.4
		C21.1,28.6,20.9,28.6,20.7,28.6z M21.1,29.2c0.1,0.1,0.2,0.1,0.3,0H21.1z M21.1,30L21.1,30l0.3,0.1C21.3,30,21.2,30,21.1,30z
		 M25.4,51c0.2,0,0.3-0.1,0.3-0.2c0-0.2-0.1-0.3-0.2-0.3l-0.1,0.1l-0.1,0.1C25.4,50.9,25.4,50.9,25.4,51
		C25.4,50.9,25.4,50.9,25.4,51z M26.4,42.4v-0.2h-0.1C26.2,42.3,26.2,42.4,26.4,42.4z M26.2,39.2c0.1,0.1,0.1,0.1,0.2,0.2
		c0,0,0.1,0.1,0.2,0.1l0.1-0.1c-0.1,0-0.2,0-0.2-0.1C26.4,39.1,26.3,39.1,26.2,39.2z M26.4,50l-0.2-0.2C26.2,50,26.3,50.1,26.4,50z
		 M26.6,49.4h-0.2C26.5,49.5,26.6,49.5,26.6,49.4z M27,31.6h-0.4C26.8,31.8,26.9,31.8,27,31.6z M26.9,45.2h-0.1c0-0.2,0-0.4,0.1-0.5
		c0-0.1,0-0.2,0.1-0.2c0.1,0,0.1,0.1,0.1,0.2v0.2V45C27,45.1,27,45.2,26.9,45.2z M27.2,23.5H27h-0.1c0,0.1,0,0.1,0.1,0.1H27
		L27.2,23.5z M26.9,46.5c0-0.2,0-0.3,0.1-0.3c0.1,0,0.1,0.1,0.1,0.3H26.9z M27.2,31L27.2,31l0.1,0.1L27.2,31z M27.4,28
		c-0.1,0-0.1-0.1,0-0.3h0.1c0,0.1,0,0.1,0,0.2C27.4,27.9,27.4,28,27.4,28z M27.7,21.4h-0.3C27.5,21.2,27.6,21.2,27.7,21.4z M27.6,17
		v-0.1h-0.1V17H27.6z M27.7,17.8c-0.1-0.1-0.1-0.2-0.1-0.3c-0.1,0.1-0.1,0.2-0.1,0.2c0,0,0,0.1,0.1,0.1
		C27.6,17.8,27.6,17.8,27.7,17.8z M27.7,18.4c0.1,0.1,0.1,0.2-0.1,0.2l-0.1-0.1c0,0,0.1-0.1,0.1-0.1H27.7z M27.4,22.2V22h0.1
		C27.6,22.1,27.5,22.2,27.4,22.2z M27.7,30.5c0,0,0,0.1-0.1,0.2c0,0.1-0.1,0.1-0.1,0.2c0,0,0-0.1-0.1-0.2c0-0.1-0.1-0.1-0.1-0.2
		H27.7z M27.6,35.2L27.6,35.2l-0.1-0.1L27.6,35.2L27.6,35.2z M27.4,38.4L27.4,38.4l0.1,0.1L27.4,38.4L27.4,38.4z M28.4,20.8
		c-0.1,0-0.1,0-0.1-0.1c0,0-0.1,0-0.1-0.1v-0.2C28.5,20.4,28.5,20.5,28.4,20.8z M33,32.5c-0.2,0-0.3,0-0.3,0c0,0,0,0.1,0.1,0.2
		C32.8,32.7,32.8,32.7,33,32.5z M32.8,31.2c0.1,0.1,0.2,0.1,0.2,0H32.8z M33,30.8L33,30.8L33,31H33V30.8z M33.2,32.5H33v0.1h0.1
		C33.1,32.6,33.2,32.6,33.2,32.5z M33.2,32.1h0.3C33.4,32,33.3,32,33.2,32.1z M34.2,27.1L34.1,27H34c0-0.1,0-0.2,0.1-0.2V27V27.1z
		 M34.6,27.1c0,0,0.1,0.1,0.2,0.1C34.8,27.2,34.7,27.1,34.6,27.1z M34.8,25.2c0-0.2,0-0.3,0.1-0.3c0.1,0,0.1,0,0,0.1
		C34.8,25,34.8,25.1,34.8,25.2z M35.6,38.9h-0.2c0,0,0,0.1-0.1,0.1c-0.1,0-0.1,0.1,0,0.2c0,0.1,0.1,0.2,0.3,0.2V38.9z M36.3,37.2
		c-0.1,0-0.2,0-0.3-0.1C36,37,35.9,37,35.8,37c0,0.1,0.1,0.2,0.1,0.2c0,0,0,0.1,0.1,0.2h0.1C36.2,37.3,36.2,37.2,36.3,37.2z
		 M36.3,23.4c0,0.1,0,0.1-0.1,0.2c0,0-0.1,0.1-0.1,0.2h-0.1v-0.3H36c0,0-0.1,0-0.2,0.1c0.2,0.2,0.3,0.3,0.3,0.3V24
		C36.5,23.9,36.5,23.7,36.3,23.4z M35.8,24.2v0.2H36h0.1h0.1l-0.1-0.1c-0.1,0-0.1-0.1-0.1,0C36,24.2,35.9,24.2,35.8,24.2z
		 M36.3,36.8c-0.1,0-0.2,0-0.3,0H36.3z M36.2,23.4c0.1-0.2,0.1-0.3,0.1-0.4c0,0-0.1-0.1-0.2-0.1C36.2,23.1,36.2,23.3,36.2,23.4z
		 M36.4,35.1v-0.3l-0.1,0.1C36.3,35.1,36.3,35.1,36.4,35.1z M37.2,35c0-0.1,0-0.3,0-0.6c0,0,0,0,0-0.1h0.1h0.2c0.1,0,0.1,0,0.2-0.1
		c0,0,0.1-0.1,0.2-0.1c0.1,0,0.2,0,0.3-0.1H38h-0.3c0.2-0.2,0.2-0.3,0.1-0.3c-0.1,0-0.2-0.1-0.2-0.3h-0.1h-0.2
		c-0.1,0.1-0.2,0.2-0.2,0.2c0,0.1-0.1,0.2-0.2,0.3v0.1v0.1c0,0-0.1,0-0.2-0.1L36.7,34c0,0.1,0,0.1,0,0.2c0.1,0,0.1,0.1,0.1,0.2
		c-0.1,0-0.2,0.1-0.2,0.1c0.1,0.2,0.2,0.3,0.2,0.3l-0.1,0.1v0.3v0.2h0.5C37,35.1,37,35,37.2,35z M36.7,22.2v0.2
		c0.1,0,0.1-0.1,0.1-0.1c0,0,0-0.1,0.1-0.2c0,0-0.1,0-0.1,0C36.8,22.2,36.8,22.2,36.7,22.2L36.7,22.2z M37.1,32.4
		c-0.1,0-0.2,0-0.2,0H37.1z M37.7,33.2c0.1,0,0.2-0.1,0.3-0.2c0-0.1,0.1-0.1,0.3-0.1c0,0,0.1-0.1,0.2-0.2H38c0-0.2,0-0.4,0.1-0.5
		v-0.3H38v-0.1c0.1,0,0.2,0,0.2-0.1c0-0.1,0.1-0.1,0.2-0.1h-0.2c0,0-0.1,0-0.1-0.1c0-0.1,0-0.2,0.1-0.3h0.3c0-0.1,0-0.2-0.1-0.3h0.1
		v0.1c0,0.1,0,0.1,0.1,0.1c0.1-0.1,0.2-0.1,0.2-0.2c0.1,0,0.1-0.1,0.2-0.1h-0.1c-0.1,0-0.2-0.1-0.2-0.2c0,0,0.1-0.1,0.2-0.1
		c0,0,0.1-0.1,0.1-0.3c0,0,0-0.1-0.1-0.1c-0.1,0-0.1,0.1-0.1,0.2c-0.1-0.1-0.1-0.2-0.1-0.3c0-0.1,0-0.3-0.1-0.5
		c-0.1,0.1-0.2,0.2-0.2,0.3c-0.1,0.1-0.1,0.2,0,0.3c-0.2,0-0.3,0-0.4,0.1c0,0.1-0.1,0.1-0.1,0.1c-0.1,0.1-0.2,0.2-0.2,0.3
		c0,0.1-0.1,0.1-0.1,0.2c0,0.1,0.1,0.2,0.1,0.2c0,0.1,0,0.1,0.1,0.2c0.1,0,0.1,0,0.1,0c0,0,0,0,0.1,0c-0.1,0.2-0.2,0.3-0.2,0.2
		c-0.1-0.1-0.1-0.2-0.2-0.2c-0.2,0.3-0.3,0.4-0.4,0.5c0.2,0,0.3,0.1,0.5,0.1l-0.1,0.1c-0.1,0-0.2,0-0.2,0c0,0-0.1,0-0.2,0
		c0,0.1,0,0.2,0.1,0.2c0,0,0,0.1,0.1,0.1c0,0.1,0,0.1-0.1,0.2c0,0-0.1,0.1-0.1,0.2C37.4,33,37.5,33.1,37.7,33.2z M37.3,21h0.1V21
		L37.3,21L37.3,21z M37.7,19.8L37.7,19.8c-0.1,0.1,0,0.1,0,0.1V19.8z M38.1,19.4v-0.3c0.2-0.2,0.3-0.3,0.3-0.3c0,0-0.1-0.2-0.2-0.3
		c0,0-0.1,0-0.2,0.1c-0.1,0-0.1,0.1,0,0.2c0.1,0,0.1,0.1,0.1,0.1c0,0-0.1,0.1-0.1,0.1c0,0-0.1,0-0.1,0.1c0,0,0,0.1-0.1,0.1v0.5
		c0.1,0,0.1-0.1,0.2-0.1C38,19.4,38,19.4,38.1,19.4z M38,19.8c0,0-0.1,0-0.2,0.1L38,19.8L38,19.8z M38,17.2V17
		C38.1,17.1,38.1,17.2,38,17.2z M38.1,31v0.2H38V31H38.1z M38.4,28.8c0-0.1-0.1-0.2-0.2-0.2c0,0,0,0.1-0.1,0.2H38.4z M39.8,26.3
		c0.1,0.2,0.2,0.1,0.3-0.1C40.1,26.3,39.9,26.3,39.8,26.3V26c0.1,0,0.1,0,0.2,0c0,0,0.1,0,0.2,0c-0.1-0.1-0.1-0.2-0.2-0.3
		c0-0.1-0.1-0.2-0.2-0.2c0,0.2-0.1,0.4-0.2,0.4c-0.1,0.1-0.1,0.1-0.2,0.2H39c0,0.1,0,0.2,0.1,0.2v0.2C39,26.7,39,26.8,39,26.9
		c0,0.1-0.1,0.2-0.2,0.3c0.1,0.1,0.1,0.2,0.1,0.2c0,0.1,0,0.1,0.2,0.2c0,0.1-0.1,0.2-0.1,0.2c0,0-0.1,0-0.1-0.1c0,0-0.1,0-0.1,0.1
		c0,0.1-0.1,0.1-0.2,0.2c0,0.1,0,0.2,0.1,0.3c0.1,0,0.1,0,0.1-0.1c0,0,0-0.1-0.1-0.1h0.1c0,0,0.1-0.1,0.1-0.1c0,0.1,0,0.1,0.1,0.1
		v0.3c0,0.2-0.1,0.3-0.2,0.3h-0.1v0.4l0.1-0.1c0,0.1,0.1,0.2,0.3,0.2v0.1c-0.1,0-0.1,0-0.1,0c0,0,0,0-0.1,0v0.1h0.2
		c0-0.1,0.1-0.3,0.2-0.5c0,0,0.1,0,0.3,0.1c0.2,0,0.3-0.1,0.3-0.2v-0.3c0-0.1,0-0.2,0-0.2s0-0.1-0.1-0.2c0.1,0,0.1,0,0.1-0.1V28
		c0-0.4,0-0.7-0.1-0.9c0-0.1,0-0.2,0.1-0.2c0-0.1,0.1-0.1,0.1-0.2c-0.1-0.1-0.2-0.1-0.3-0.1c0.1,0,0.2-0.1,0.2-0.3H39.8z M38.6,24.8
		c0.1,0,0.2-0.1,0.3-0.1c-0.1-0.1-0.2-0.2-0.2-0.3C38.7,24.6,38.7,24.8,38.6,24.8z M39,22c0-0.1-0.1-0.1-0.2-0.2c-0.1,0-0.1,0-0.1,0
		V22H39z M38.7,27c0,0,0.1,0,0.1-0.1s0-0.1-0.1-0.2V27z M38.7,30c0.1,0.1,0.2,0.1,0.3,0c0.1,0,0.1-0.1,0-0.2
		C39,29.8,38.9,29.9,38.7,30z M39.2,14.1C39.2,14.1,39.1,14.1,39.2,14.1c-0.1,0.1-0.1,0.1-0.1,0.1L39,14.2c0,0,0,0.1,0.1,0.1
		c0,0,0.1,0.1,0.1,0.2V14.1z M39.4,13.2c-0.2,0.1-0.3,0.1-0.3,0c0,0,0.1,0,0.1,0H39.4z M39.1,26.8c0,0,0.1,0.1,0.1,0.1V27h-0.1V26.8
		z M39.8,20.2c-0.2,0-0.3,0-0.3,0.1c0,0.2,0,0.3-0.1,0.3l-0.1,0.1h-0.1h0.5c0,0,0-0.1,0.1-0.2C39.9,20.4,39.9,20.3,39.8,20.2z
		 M39.5,24.6h0.3c0-0.1-0.1-0.1-0.1-0.1c0,0-0.1,0-0.1-0.1h0.1C39.6,24.4,39.5,24.5,39.5,24.6c-0.1,0.1-0.2,0.2-0.3,0.2h0.4
		C39.6,24.8,39.5,24.7,39.5,24.6z M39.4,16.3c0.1-0.1,0.2-0.2,0.2-0.3c-0.1,0-0.2-0.1-0.1-0.2C39.3,16,39.2,16.1,39.4,16.3z
		 M39.5,15h-0.1H39.5L39.5,15z M39.7,19.2c0,0.1,0,0.2,0,0.3c-0.1,0-0.1,0.1-0.1,0.2h0.2v-0.1h0.3V19c-0.1,0-0.2-0.1-0.2-0.1
		c0,0-0.1-0.1-0.2-0.1c-0.1,0-0.2,0.1-0.2,0.2c0,0,0.1,0.1,0.1,0.1C39.7,19,39.7,19.1,39.7,19.2z M39.6,25.3c-0.1,0.2,0,0.3,0.1,0.3
		C39.6,25.4,39.6,25.4,39.6,25.3z M40.6,18.4L40.6,18.4c0,0.2,0,0.2,0.1,0.2c0,0,0.1,0,0.1,0.1C40.8,18.5,40.7,18.4,40.6,18.4
		c0.1-0.2,0.1-0.4,0.1-0.5c0-0.1-0.1-0.2-0.1-0.3l-0.1,0.1h-0.1h0.1v-0.1c-0.1,0-0.2,0-0.2,0.1c0-0.2,0-0.4,0.1-0.5
		c0,0,0-0.1,0.1-0.1c0,0,0.1,0,0.1-0.1c0-0.2,0-0.4,0.1-0.4v-0.3v-0.3h0.1h0.2V16c-0.1,0-0.2,0.1-0.3,0.1c-0.1,0-0.2,0-0.3,0.1
		c0,0-0.1,0-0.2-0.1c-0.1,0-0.1-0.1-0.2-0.1c0.1,0.1,0.2,0.2,0.2,0.2c0.1,0,0.1,0.1,0.1,0.1c0,0.1,0,0.1-0.1,0.2
		c-0.1,0-0.1,0.1-0.1,0.1c0.1,0,0.1,0,0.2,0.1c0,0,0.1,0.1,0.1,0.1V17c-0.2,0-0.3,0.1-0.3,0.3v0.1c-0.1,0.1-0.1,0.2-0.1,0.3
		c0,0.1-0.1,0.2-0.2,0.3c0,0-0.1,0.1-0.1,0.2c0,0.1,0,0.2-0.1,0.3c0.1-0.1,0.2-0.1,0.3,0H40c0.1-0.1,0.2-0.1,0.4-0.1L40.6,18.4
		l-0.1-0.2C40.6,18.2,40.6,18.3,40.6,18.4z M39.9,21.8c0-0.1,0.1-0.1,0-0.2c0,0,0-0.1,0-0.2l-0.2,0.2C39.8,21.8,39.9,21.8,39.9,21.8
		z M39.7,27.1c0,0.1,0.1,0.1,0.2,0H39.7z M40,25.2h0.4c0.1,0,0.2,0,0.2-0.1c0-0.2-0.1-0.3-0.1-0.5c0-0.2,0-0.3,0-0.4
		c-0.1-0.1-0.1-0.2-0.2-0.2c0,0-0.1-0.1-0.2-0.1c0,0.2,0,0.4-0.1,0.6C40,24.8,40,25,40,25.2z M40.3,25.5v-0.1c-0.2,0-0.3,0-0.3,0.1
		H40.3z M40.4,22.8c0,0.1-0.1,0.2-0.2,0.2c-0.1,0-0.1,0.1-0.1,0.2c0.2,0,0.3,0,0.5,0c0,0-0.1-0.1-0.1-0.1V23c0,0,0-0.1-0.1-0.1
		C40.4,22.9,40.4,22.9,40.4,22.8z M40.5,13.2V13c-0.1,0-0.2,0-0.2,0.1H40.5z M40.4,17.9c0.2,0.1,0.2,0.2-0.1,0.3
		C40.4,18.1,40.4,18,40.4,17.9z M40.5,21c0,0-0.1,0.2-0.2,0.4v0.1v0.1h0.1h0.1h0.1c0-0.1,0-0.1,0-0.1c0,0,0,0,0-0.1
		C40.6,21.1,40.6,21,40.5,21z M40.8,14.3v-0.4c0,0-0.2,0.1-0.4,0.2c0.1,0.1,0.2,0.1,0.2,0.1C40.7,14.2,40.8,14.2,40.8,14.3z
		 M40.5,15.7c-0.1,0.1-0.1,0.2,0.1,0.1C40.6,15.8,40.5,15.8,40.5,15.7L40.5,15.7z M40.6,24L40.6,24c0-0.1-0.1-0.2-0.1-0.2L40.6,24
		C40.5,24,40.6,24,40.6,24z M40.7,16.7c0,0.1,0.1,0.1,0.2,0H40.7z M41.1,13.8L41.1,13.8L41.1,13.8L41.1,13.8z M41.1,14.2
		c0,0,0.1,0,0.1-0.1c0,0,0.1-0.1,0.2-0.1C41.2,14,41.1,14.1,41.1,14.2z M41.1,20.2c0,0.2,0.1,0.2,0.3,0.1
		C41.4,20.3,41.3,20.3,41.1,20.2z M41.6,18c0.1-0.1,0.2-0.1,0.2,0.1L41.7,18H41.6L41.6,18z M42.1,18.8c0.2-0.1,0.3-0.2,0.3-0.4
		c0.1,0,0.1,0,0.1,0c0,0,0,0.1,0,0.4c-0.1,0.1-0.2,0.1-0.2,0.1C42.3,18.8,42.2,18.8,42.1,18.8z M42.2,14.9c0.1,0,0.1-0.1,0-0.2V14.9
		z M42.8,17.3c0,0.1,0,0.1,0,0.2c0,0-0.1,0.1-0.2,0.3c0,0.1,0,0.2,0.1,0.3L42.5,18h-0.1c0,0,0-0.1,0-0.2c0-0.1,0-0.1,0-0.2
		c0,0,0.1-0.1,0.2-0.2C42.6,17.3,42.7,17.3,42.8,17.3z M42.8,17.2c-0.1,0-0.1,0-0.1,0c0,0,0,0-0.1,0C42.6,17,42.7,17.1,42.8,17.2z
		 M43,14.5c0-0.1-0.1-0.2-0.1-0.3c0,0,0-0.1,0-0.1c0,0,0-0.1,0-0.1v-0.1c0,0,0-0.1,0-0.1c0,0,0,0,0-0.1H43c0.1,0,0.2,0.1,0.2,0.1
		c0,0,0.1,0.1,0.2,0.1c-0.2,0.1-0.3,0.2-0.3,0.2C43.1,14.4,43.1,14.4,43,14.5z M43,15.3c0-0.1,0-0.2,0-0.2c0-0.1,0-0.1,0-0.2v-0.1
		c0,0,0-0.1,0-0.1c0,0,0-0.1,0-0.1c0.2,0.1,0.3,0.2,0.3,0.3C43.2,14.9,43.1,15.1,43,15.3z M43.2,13.4c0-0.1,0-0.1,0-0.2
		c0,0,0-0.1,0-0.2h0.4v0.3c-0.1-0.1-0.2-0.2-0.3-0.2V13.4z M43.4,13.6c0.1,0.2,0.1,0.3-0.2,0.3C43.4,13.8,43.4,13.7,43.4,13.6z"/>
	<path d="M61.2,43.1c0,0,0.1,0.1,0,0.2c0,0.1,0,0.1,0,0.2c-0.2,0.2-0.2,0.5-0.1,0.8c0,0.1,0,0.3-0.1,0.5c0,0.2-0.1,0.5-0.1,0.7
		c0,0.2-0.1,0.5-0.2,0.7c-0.1,0.4,0,0.7,0.2,0.8c-0.1,0.4-0.2,0.7-0.3,0.9c-0.1,0.3-0.2,0.6-0.3,0.9c-0.1,0.1,0,0.2,0.3,0.2
		c-0.1,0.1-0.2,0.2-0.3,0.2l-0.1,0.1c0.1,0.2,0.1,0.3,0,0.4c-0.1,0.1-0.2,0.2-0.3,0.3c-0.1,0.1-0.2,0.2-0.2,0.3
		c0,0.1-0.1,0.2-0.2,0.3c0,0.1,0,0.2-0.1,0.2c-0.2,0.1-0.4,0.2-0.4,0.4c-0.1,0.2-0.1,0.4-0.2,0.6c-0.1,0.3-0.2,0.5-0.3,0.7
		c-0.1,0.2-0.3,0.4-0.5,0.6c-0.1,0.1-0.2,0.2-0.2,0.3c0,0.1-0.1,0.2-0.1,0.3c-0.1,0.2-0.3,0.5-0.5,0.7c-0.1,0.1-0.1,0.2,0.1,0.3
		c-0.1,0.1-0.3,0.1-0.5,0.1c-0.2,0-0.3,0.1-0.5,0.2c0,0,0,0-0.1,0h-0.1c0-0.1-0.1-0.1-0.1-0.2c0,0,0-0.1-0.1-0.2
		c0,0.1-0.1,0.2-0.1,0.3c0,0.1,0,0.2-0.1,0.3c0,0.3-0.1,0.5-0.4,0.5c-0.3,0-0.5,0.1-0.8,0.4c0,0-0.1,0.1-0.1,0.1c0,0-0.1,0-0.1,0.1
		c-0.4,0.2-0.6,0.4-0.8,0.6c-0.2,0.2-0.4,0.5-0.6,1c0,0-0.2,0.1-0.3,0.1c-0.1,0-0.2,0.1-0.3,0.2c0,0.1-0.1,0.2-0.2,0.2
		c-0.1,0.1-0.2,0.1-0.2,0c-0.1,0-0.1-0.1,0-0.2c0.2-0.1,0.4-0.4,0.7-0.7v0.1v-0.1c0,0,0.1-0.1,0.1-0.1c0,0,0.1,0,0.1-0.1v-0.2H53
		c-0.1,0-0.1,0-0.1,0.1v0.2c-0.2-0.1-0.4-0.1-0.6,0c-0.2,0.1-0.4,0.2-0.6,0.3c-0.1,0.1-0.1,0.2-0.1,0.3c0,0.1-0.1,0.3-0.1,0.5
		c-0.5,0.1-1.1,0.4-1.5,0.7c0,0,0,0.1,0,0.1c0,0,0,0.1,0,0.1c0,0.2-0.2,0.3-0.3,0.3c-0.2-0.1-0.3-0.1-0.5-0.1
		c-0.1,0.1-0.3,0.2-0.5,0.4c-0.1,0-0.3,0.1-0.5,0.2c-0.3-0.1-0.5-0.2-0.7-0.2c-0.2,0.2-0.4,0.4-0.6,0.4c-0.2,0.1-0.5,0.1-0.7,0.2
		c0,0-0.1,0.1-0.1,0.1h-0.1c-0.4,0.2-0.7,0.3-1,0.3c-0.3,0-0.7-0.1-1-0.1c-0.5,0-1.1-0.2-1.5-0.5c-0.2-0.1-0.4-0.2-0.6-0.3
		c-0.2-0.1-0.4-0.2-0.6-0.3c-0.2-0.1-0.3-0.2-0.4-0.3c-0.1-0.1-0.3-0.2-0.4-0.3c-0.4-0.3-0.8-0.6-1-1c-0.3-0.4-0.6-0.7-0.8-1.1
		c-0.2-0.3-0.4-0.6-0.5-1c-0.1-0.1-0.2-0.3-0.2-0.4c-0.1-0.1-0.1-0.3-0.2-0.5c-0.3-0.4-0.6-0.7-0.7-1.1c-0.1-0.1-0.2-0.2-0.2-0.2
		c0-0.1-0.1-0.1-0.2-0.2c-0.2-0.2-0.4-0.4-0.4-0.6c-0.5-1.7-0.6-3.2-0.5-4.8c0.1-0.9,0.3-1.8,0.5-2.7c0.2-0.9,0.6-1.7,1-2.6
		c0.2-0.4,0.4-0.7,0.5-1.1c0.2-0.4,0.4-0.7,0.5-1.1c0.3-0.7,0.6-1.3,1-1.8c0.4-0.4,0.7-0.9,0.9-1.3c0.3-0.4,0.6-0.9,1-1.3l0.4-0.4
		c0.9-1.3,1.9-2.4,2.9-3.4c0.5-0.6,1.2-1.2,2-1.9c0.4-0.3,0.8-0.6,1.2-0.7c0.2-0.1,0.4-0.2,0.6-0.4c0.2-0.2,0.4-0.3,0.6-0.4
		c0.3-0.2,0.5-0.3,0.8-0.5c0.2-0.1,0.5-0.3,0.8-0.5c0,0,0.1,0,0.1,0c0,0,0.1,0,0.1,0c0.4,0.2,0.7,0.3,1,0.3c0.2,0,0.4,0,0.5,0.1
		c0.1,0.1,0.3,0.2,0.4,0.3c0.1,0.1,0.2,0.3,0.3,0.4c0.1,0.1,0.2,0.2,0.3,0.4v0.1c-0.2,0.3-0.3,0.4-0.2,0.5c0,0.1,0.1,0.2,0.4,0.4
		c0.1,0,0.2,0.1,0.2,0.1c0.1,0,0.1,0.1,0.2,0.1c0.3,0.1,0.5,0.2,0.8,0.3c0.3,0.1,0.5,0.2,0.8,0.4c0.2,0.1,0.4,0.1,0.5,0.1
		c0.5,0,0.9,0.2,1.3,0.5c0.5,0.4,0.9,0.9,1.2,1.5c0.1,0.2,0.2,0.3,0.3,0.5c0.2,0.4,0.4,0.7,0.7,1c0.2,0.3,0.4,0.6,0.6,1
		c0.2,0.3,0.3,0.7,0.4,1.1c0,0,0.1,0.1,0.1,0.1c0,0,0,0.1,0.1,0.1c0.2,0.2,0.2,0.5,0.2,0.8c0,0.3,0,0.5,0.1,0.6c0,0,0.1,0.1,0.1,0.2
		c0,0.3,0,0.6,0,0.9c0.1,0.3,0.1,0.6,0.2,0.9v1.2c0,0.2,0,0.3,0,0.5C61.1,42.7,61.1,42.9,61.2,43.1z M55.1,43.1
		c0.1-0.1,0.2-0.3,0.2-0.4c0-0.2,0-0.3,0-0.5c0-0.6,0-1.2,0-1.7c0-0.6,0-1.2,0-1.7c0-0.4,0-0.7,0-0.8c0-0.1-0.2-0.3-0.4-0.6
		c-0.1-0.2-0.2-0.3-0.4-0.5c-0.2-0.1-0.3-0.3-0.5-0.4c-0.2-0.1-0.4-0.2-0.6-0.3c-0.2-0.1-0.4-0.2-0.6-0.3c-0.1,0-0.2-0.1-0.3-0.1
		c-0.1,0-0.2,0-0.4,0.1c-0.2,0-0.4,0-0.7-0.1c-0.4-0.3-0.8-0.2-1.1,0.2c-0.2,0.2-0.3,0.4-0.5,0.6c-0.2,0.2-0.3,0.4-0.5,0.5
		c-0.1,0.2-0.3,0.3-0.4,0.5c-0.1,0.2-0.2,0.3-0.3,0.6c-0.4,0.1-0.7,0.3-0.9,0.6c0,0.1-0.1,0.2-0.3,0.3c-0.3,0.3-0.5,0.5-0.7,0.8
		c-0.1,0.2-0.2,0.3-0.4,0.3c-0.1,0-0.3,0.1-0.5,0.3c-0.2,0.2-0.3,0.5-0.5,0.7c-0.2,0.3-0.3,0.5-0.5,0.8c0,0.1-0.1,0.3-0.1,0.5
		c0,0,0,0.1-0.1,0.1c-0.1,0.2-0.3,0.4-0.4,0.6c-0.1,0.2-0.3,0.4-0.5,0.5c-0.3,0.3-0.5,0.6-0.6,0.9c-0.1,0.4-0.2,0.7-0.4,1.1
		c-0.2,0.4-0.3,0.7-0.4,1.1c0,0.1-0.1,0.3-0.2,0.4c-0.1,0.1-0.1,0.2-0.2,0.3c0,0.1,0,0.2-0.1,0.3c-0.1,0.1-0.1,0.2-0.2,0.3
		c0.1,0.4,0.1,0.8-0.1,1.1c-0.1,0.2-0.2,0.4-0.2,0.7c-0.1,0.4-0.1,0.6-0.1,0.8c-0.2,1.7,0.3,3.1,1.5,4.2c0.4,0.4,0.9,0.5,1.4,0.4
		c0.4-0.1,1-0.3,1.5-0.5c0.5-0.2,1.1-0.4,1.5-0.6c0.5-0.2,1-0.5,1.5-0.7c0.5-0.3,1.1-0.6,1.7-0.9c0.1-0.1,0.2-0.2,0.3-0.3
		c0.3-0.4,0.5-0.7,0.8-1c0.2-0.3,0.5-0.7,0.7-1c0-0.1,0.1-0.2,0.2-0.3c0.1-0.1,0.1-0.2,0.2-0.3c0.2-0.2,0.3-0.5,0.5-0.7
		c0.1-0.2,0.2-0.5,0.3-0.8c0-0.1,0.2-0.3,0.3-0.6c0.1-0.2,0.2-0.3,0.2-0.5c0.1-0.2,0.1-0.3,0.2-0.6c0.2-0.4,0.3-0.8,0.4-1.2
		c0.1-0.4,0.1-0.9,0.2-1.3c0-0.1,0.1-0.2,0.1-0.3C55,43.3,55,43.2,55.1,43.1z M45.5,59.5c-0.1-0.1-0.2-0.2-0.3-0.3
		c-0.4-0.2-0.7-0.3-1.1-0.3c-0.4,0-0.8,0.1-1.1,0.2c-0.1,0-0.2,0.1-0.2,0.2c0,0.1,0,0.2,0.2,0.3c0.3,0.1,0.6,0.2,0.9,0.2
		c0.3,0.1,0.6,0,1-0.1c0.1,0,0.2-0.1,0.2-0.1c0,0,0.1,0,0.2-0.1L45.5,59.5z M52.2,34.5c-0.2,0-0.5,0.1-0.7,0.3
		c0.1,0.1,0.2,0.2,0.3,0.3c0.4,0.1,0.7,0.2,1,0.4c0.3,0.2,0.7,0.4,1,0.6c0.2,0.2,0.4,0.4,0.8,0.4c-0.1-0.4-0.3-0.7-0.4-1
		c-0.2-0.3-0.3-0.6-0.6-0.8c-0.3-0.2-0.6-0.3-0.9-0.2C52.6,34.6,52.4,34.6,52.2,34.5z M56.8,53.6c-0.2,0-0.3,0-0.3,0.1
		c0,0.1-0.1,0.2-0.1,0.3c0,0.1,0,0.2,0.1,0.3c0,0,0.1,0.1,0.1,0.1c0,0,0.1,0,0.2,0.1V53.6z"/>
	<path d="M73,31.7c0.1,1,0.1,2-0.1,2.9c0,0.2-0.1,0.3-0.1,0.4c0,0.1-0.1,0.2-0.1,0.4c-0.1,0.5-0.3,1-0.4,1.4
		c-0.1,0.4-0.3,0.9-0.5,1.3c0,0,0,0.1,0,0.1c0,0,0,0.1,0,0.2c0,0.2,0,0.4-0.1,0.6c-0.1,0.2-0.1,0.4-0.2,0.6
		c-0.1,0.2-0.2,0.4-0.2,0.6c0,0.2-0.1,0.4-0.1,0.6c0,0.4-0.2,0.8-0.4,1.3c-0.2,0.5-0.2,0.9-0.1,1.3c-0.4,0.4-0.5,0.8-0.4,1.3
		c0,0.1,0,0.2-0.1,0.3c0,0.1-0.1,0.2-0.2,0.3c-0.3,0.4-0.6,0.9-0.7,1.3c0,0-0.1,0.1-0.1,0.2c0,0.1,0.1,0.2,0.3,0.3
		c0,0.1-0.1,0.2-0.1,0.2c0,0.1-0.1,0.1-0.1,0.2c-0.3,0.2-0.5,0.6-0.6,1.1c-0.1,0.2-0.2,0.4-0.2,0.5c0,0.2-0.1,0.4-0.2,0.5
		c0,0.1,0,0.3,0,0.4c0,0.1,0,0.2,0,0.3c0.1,0.6,0.1,1.2,0,1.8c-0.1,0.2-0.2,0.4-0.2,0.6c0,0.2-0.1,0.4-0.1,0.6
		c-0.1,0.3-0.2,0.5-0.2,0.7c0,0,0.1,0.1,0.1,0.1c0,0,0,0.1,0.1,0.1c0,0-0.1,0.1-0.1,0.2c0,0.1-0.1,0.2-0.2,0.3
		c-0.4,0.5-0.6,1.2-0.7,1.9c0,0.1,0,0.2-0.1,0.3c-0.1,0.1-0.2,0.2-0.2,0.3c0,0.1-0.1,0.2-0.2,0.3c-0.1,0.3-0.2,0.5-0.5,0.5
		c-0.1,0-0.2,0.1-0.2,0.3c-0.1,0.4-0.2,0.6-0.5,0.8c-0.3,0.3-0.5,0.3-0.6,0.1c-0.1,0.1-0.1,0.2-0.1,0.2l-0.1,0.1
		c-0.1,0.3-0.3,0.4-0.5,0.5c-0.4,0-0.6,0.2-0.8,0.5c-0.1,0.2-0.3,0.4-0.4,0.6c-0.1,0.2-0.2,0.4-0.3,0.6c-0.1,0.3-0.2,0.5-0.3,0.6
		c-0.1,0.1-0.3,0.1-0.5,0.1c-0.1,0-0.2,0-0.3-0.1c-0.1-0.1-0.2-0.1-0.3-0.1c-0.2,0.2-0.4,0.4-0.4,0.7c-0.1,0.3-0.2,0.5-0.4,0.7
		c-0.1-0.2-0.1-0.3-0.2-0.5c0-0.2-0.1-0.3-0.2-0.6c-0.3-0.1-0.5-0.2-0.6-0.5c-0.1-0.2-0.2-0.5-0.2-0.7c0-0.7,0-1.4,0.1-2.3
		c0.1-0.6,0.3-1.2,0.4-1.8c0.2-0.6,0.3-1.2,0.4-1.7c0.4-1.1,0.8-2.1,1.1-3c0.1-0.4,0.2-0.7,0.3-1.1c0.1-0.4,0.2-0.8,0.3-1.1
		c0.2-0.9,0.4-1.8,0.6-2.7c0.2-0.9,0.4-1.8,0.6-2.7c0.1-0.2,0.2-0.5,0.3-0.7c0.1-0.3,0.2-0.5,0.3-0.7c0-0.1,0-0.1,0-0.2
		c0,0,0-0.1,0-0.2c0-0.3,0.1-0.5,0.2-0.8c0.1-0.3,0.2-0.6,0.3-0.8c0.3-0.4,0.5-0.8,0.6-1.2c0.1-0.4,0-0.8,0.2-1.2
		c0.3-0.8,0.9-1.5,1.2-2.4c0.3-0.8,0.7-1.6,1.1-2.4c0.3-0.6,0.5-1.2,0.7-1.8c0.2-0.6,0.3-1.2,0.6-1.8c0.2,0.1,0.3,0.3,0.3,0.5
		c0,0,0.1-0.1,0.2-0.1c0.1,0,0.2,0,0.3-0.1c0,0.1,0.1,0.1,0.2,0.2c0.1,0,0.1,0.1,0.2,0.2c0,0,0.1,0,0.2-0.1c0.1-0.1,0.3-0.2,0.4-0.3
		c0.2-0.1,0.3-0.1,0.4-0.1s0.2,0.1,0.3,0.3c0.3,0,0.6,0,1,0.1c0.4,0.1,0.5,0.4,0.4,0.9c0.1-0.2,0.2-0.4,0.3-0.6
		c0.1-0.2,0.3-0.3,0.5-0.3V31.7z M73.8,23.8c0,0.1,0,0.2,0,0.2c0,0,0,0.1,0,0.2v0.3c0,0.1,0,0.2-0.1,0.3c0.1,0,0.1,0.1,0,0.2
		l-0.2,0.2v0.3c0,0-0.1,0.1-0.1,0.1l-0.1-0.1c-0.1,0-0.2,0.1-0.3,0.2c0,0.1-0.1,0.2-0.3,0.3c0,0.1,0,0.1,0.1,0.1v0.1
		c0,0,0,0.1-0.1,0.1c0,0,0,0.1,0,0.1c0,0,0,0,0,0.1c0,0.1,0,0.2,0.1,0.3v0.1c0,0-0.1,0.1-0.1,0.2c-0.1,0.1-0.2,0.2-0.2,0.3
		c0,0-0.1,0.1-0.1,0.1c0,0,0,0.1-0.1,0.1c-0.1,0.1-0.2,0.2-0.3,0.2c-0.1,0-0.2,0.1-0.3,0.1l-0.1,0.1h-0.1c0,0-0.1-0.1-0.2-0.1
		c0,0.2-0.1,0.2-0.2,0.2c0,0-0.2,0.1-0.4,0.1c0,0-0.1,0.1-0.1,0.1c0,0,0,0.1-0.1,0.1l-0.1,0.1c0-0.1,0-0.1-0.1-0.1V29
		c0,0-0.2,0-0.3,0.1c0,0.1,0,0.2-0.1,0.3c0,0-0.1,0-0.1,0c0,0,0,0-0.1,0c-0.1,0.1-0.1,0.1-0.1-0.1c0.1-0.1,0.2-0.2,0.2-0.3l0.2-0.2
		c0-0.1,0-0.2,0.2-0.3h-0.1c0,0,0-0.1,0-0.1c0,0,0-0.1,0-0.1v-0.2c0-0.1-0.1-0.1-0.2-0.1c0,0-0.1,0-0.1,0c0,0-0.1,0-0.1,0h-0.1
		c-0.1,0-0.1,0.1-0.2,0.1c0,0-0.1,0.1-0.2,0.1c0-0.1,0-0.2,0.1-0.2c0.1,0,0.1,0,0-0.1c0,0-0.1,0.1-0.1,0.1h-0.1c0,0-0.1,0-0.1-0.1
		l-0.1-0.1h-0.1c0,0,0,0.1-0.1,0c-0.1,0-0.1,0,0,0.1C69.1,28,69,28,68.9,28c0,0-0.1,0.1-0.1,0.1c0,0,0,0.1-0.1,0.1
		c0,0-0.1,0-0.1-0.1c0,0,0-0.1,0-0.2l-0.1-0.1c0-0.1,0-0.2,0.1-0.3c0-0.1,0-0.2-0.1-0.3c0,0-0.1,0-0.1-0.1v0.2v0.1
		c-0.1,0-0.1,0.1-0.1,0.3c0,0,0,0.1,0,0.1c0,0,0,0.1,0,0.1c0,0,0,0.1,0,0.1c0,0,0,0.1,0,0.1c0,0-0.1,0.1-0.1,0.3
		c0,0.1-0.1,0.1,0,0.2c0,0,0,0.1,0,0.1c0,0.1,0,0.2,0.1,0.2v0.5v0.2c-0.1,0.1-0.1,0.1,0,0.1c0,0,0.1,0,0.1,0c0,0,0,0,0.1,0
		c0,0.1,0,0.2,0.1,0.2c0.2,0,0.3,0,0.3-0.1h0.1l0.1,0.1c0,0,0,0.1-0.1,0.1L68.8,30h-0.1c0,0-0.1-0.1-0.1-0.1c0,0-0.1,0-0.1-0.1
		L68.4,30c0,0-0.1-0.1-0.1-0.1c0-0.2-0.1-0.3-0.2-0.3c0.1-0.1,0.1-0.2,0.1-0.2c0-0.1,0-0.1,0-0.2c0,0,0-0.1,0-0.3L68,28.6
		c0,0-0.1-0.1-0.1-0.3c0,0,0.1-0.1,0.1-0.2c0-0.1,0-0.2,0.1-0.3H68L68,27.7c0,0,0-0.1,0.1-0.1c0,0,0.1-0.1,0.1-0.1v-0.1
		c0.1-0.1,0.1-0.2,0.1-0.4c0-0.1,0-0.2,0.1-0.3c0,0,0.1-0.1,0.1-0.2l0.1-0.1v-0.1h-0.1c0,0-0.1,0-0.1-0.1c0.1-0.1,0.2-0.2,0.3-0.4
		c0-0.1,0.1-0.3,0.1-0.6c0-0.1-0.1-0.2-0.2-0.3c-0.2,0-0.3-0.2-0.4-0.5c0-0.1,0-0.2,0.1-0.3c0.1-0.1,0.3-0.1,0.4-0.1
		c0.1,0,0.3,0,0.4-0.1c0-0.2,0.1-0.3,0.3-0.5c0,0,0-0.1,0-0.2c0-0.1,0-0.2,0.1-0.2c0,0,0.1-0.1,0.1-0.1c0,0,0-0.1,0.1-0.1v-0.1
		c-0.1-0.2-0.1-0.3,0.1-0.3c0,0.2,0,0.3-0.1,0.3V23h0.1c0,0,0.1,0,0.1-0.1c0-0.1,0-0.2,0.1-0.3c0,0,0.1,0,0.1-0.1h-0.1
		c0,0-0.1-0.1-0.1-0.1c-0.1,0-0.2-0.1-0.1-0.2l0.1,0.1c0,0,0.1,0,0.1,0.1c0,0,0.1,0,0.1-0.1c0,0,0-0.1,0.1-0.2c0,0,0.1-0.1,0.1-0.2
		l0.1,0.3c0.1-0.1,0.2-0.3,0.2-0.5h0.1c0,0.1,0,0.2,0.1,0.3c0.1,0,0.1-0.1,0.1-0.1c0,0,0-0.1,0-0.1c0,0,0.1,0,0.1-0.1
		c0,0,0.1,0,0.1,0.1C70.9,22,71,22,71,22V22h0.2V22c0.1,0,0.2,0.1,0.3,0c0.1,0,0.2,0,0.3,0l0.1,0.1c0.1,0,0.1,0,0.1,0.1h0.1l0.1-0.1
		c0-0.1,0-0.2-0.1-0.3v-0.1h0.1l0.1,0.1c0.1,0,0.1,0,0.1,0.1c0,0.1,0,0.2,0.1,0.3v0.1c0,0,0,0.1,0.1,0.2c0.2,0.1,0.2,0.2,0.1,0.4
		c0,0.1,0,0.2,0.1,0.2c0.3,0.2,0.5,0.3,0.6,0.5L73.8,23.8z M69.5,29.3c0.1,0.1,0.1,0.2-0.1,0.2h-0.1c0,0-0.1,0.1-0.2,0.1
		c0,0,0-0.1,0.1-0.1c0-0.1,0.1-0.2,0-0.2c0-0.1,0-0.1,0-0.2L69,29.3c-0.1-0.3-0.1-0.4-0.1-0.5c0,0,0-0.1,0.1-0.2
		c0,0-0.1-0.1-0.1-0.1c0,0,0-0.1-0.1-0.2l0.1-0.1c0,0,0.1,0.1,0.1,0.1c0,0,0,0.1-0.1,0.1c0.1,0.1,0.1,0.2,0.1,0.2
		c-0.1,0.2,0,0.4,0.2,0.5L69.5,29.3z M69.8,28.1c0,0.1-0.1,0.2-0.1,0.2c0,0,0,0.1,0,0.1c0,0,0,0,0,0.1c0,0,0-0.1-0.1-0.1
		c0-0.1,0-0.1,0.1-0.1C69.7,28,69.7,28,69.8,28.1z M70.2,28.6C70.1,28.6,70.1,28.6,70.2,28.6c-0.1,0.1-0.1,0.1-0.1,0.1
		c0,0-0.1-0.1-0.1-0.2c0-0.1,0-0.1,0.1,0L70.2,28.6L70.2,28.6z M70.7,29c0.1,0,0.1,0,0.1,0.1L70.7,29z M71.2,21.9
		C71,22,71,22,71,21.8c0-0.1,0-0.1,0.1-0.1h0.2h0.1L71.2,21.9z M71.4,29L71.4,29c0,0.1-0.1,0.1-0.2,0.1c0,0,0.1-0.1,0-0.1
		C71.2,28.9,71.2,28.9,71.4,29L71.4,29z M71.8,21.8c-0.1,0-0.1,0-0.1-0.1c0-0.1,0.1-0.1,0.2-0.1c0.1,0,0.2,0.1,0.2,0.3H71.8z
		 M71.9,28.8c0,0.1,0,0.2,0,0.2c-0.1,0.1-0.2,0.1-0.2,0L71.9,28.8z M72,28.8L72,28.8l0.3-0.1c0,0-0.1,0.1-0.2,0.3
		C72,28.9,72,28.8,72,28.8z M72.5,28.4c0,0.1,0,0.2-0.1,0.3C72.3,28.6,72.3,28.6,72.5,28.4z M72.8,28C72.8,28,72.8,28,72.8,28
		c0.1,0.1,0.1,0.1,0.1,0.1c-0.1,0.1-0.1,0.2-0.1,0.2c0,0-0.1,0.1-0.1,0.1v-0.1c0,0,0-0.1,0-0.1c0,0,0-0.1,0-0.2H72.8z M72.7,22.7
		c0,0-0.1,0.1,0,0.2c0,0.1,0.1,0.1,0.1,0.1C72.8,22.9,72.8,22.8,72.7,22.7z M72.8,25.8c0,0,0.1-0.1,0.1-0.1c0,0,0-0.1,0.1-0.1
		C72.7,25.6,72.7,25.7,72.8,25.8z M73.3,27.4c0.1,0.1,0.1,0.1,0.1,0.1c0,0.2-0.1,0.2-0.2,0.2c0-0.1,0.1-0.1,0.1-0.2
		C73.3,27.6,73.3,27.5,73.3,27.4z"/>
	<path d="M95.7,35.3c0-0.1-0.4-0.2-0.6-0.2c0-0.2-0.1-0.4-0.2-0.7c0-0.3-0.2-0.5-0.6-0.7c-0.5-0.2-1-0.3-1.5-0.4
		c-0.5-0.1-1-0.1-1.5,0c-0.5,0.1-1,0.1-1.5,0.1c-0.5,0-1,0-1.6,0H88c0,0-0.1,0.1-0.3,0.2c0.1,0,0.3,0.1,0.4,0.1
		c0.1,0,0.2,0.1,0.4,0.1l1.2,0.2c0.2,0,0.4,0,0.7,0.1c0,0,0.1,0.1,0.2,0.2c-0.2,0.1-0.4,0.1-0.6,0.1c-0.2,0-0.3-0.1-0.5-0.1
		c-0.4-0.1-0.8-0.1-1.1,0.1c-0.2,0.1-0.4,0.2-0.7,0.1c-0.3,0-0.6,0-0.9-0.1c-0.3-0.1-0.6-0.1-0.9,0c-0.3,0-0.6,0.1-0.9,0.3
		c-0.1,0.1-0.2,0.1-0.3,0.2c-0.1,0-0.2,0.1-0.3,0.2c-0.2,0-0.3,0.2-0.5,0.5c-0.1,0.3-0.3,0.4-0.6,0.5c0,0-0.1,0.1-0.1,0.1
		c0,0-0.1,0-0.1,0.1c-0.2,0.2-0.1,0.4,0.2,0.5c0,0.1,0,0.2-0.1,0.2c0,0,0,0.1-0.1,0.1c0,0-0.1,0-0.1,0c0,0,0,0-0.1,0
		c-0.1-0.1-0.2-0.1-0.3,0c-0.1,0.1-0.2,0.3-0.3,0.5c0,0.1,0.1,0.2,0.2,0.2c0.1,0,0.1,0,0.2,0v0.1c-0.2,0.2-0.3,0.5-0.4,0.7
		c-0.1,0.3-0.1,0.5-0.2,0.8c0,0.3,0.1,0.5,0.3,0.6c0.5,0.2,1,0.4,1.4,0.7c0.5,0.2,1,0.4,1.4,0.6c0.4,0.1,0.7,0.2,1.1,0.3
		c0.4,0.1,0.7,0.3,1.1,0.5c0.3,0.2,0.4,0.3,0.5,0.4c-0.2,0-0.4-0.1-0.6-0.1c-0.2,0-0.4-0.1-0.6-0.1c-0.2-0.1-0.3-0.2-0.5-0.2
		c-0.2-0.1-0.3-0.1-0.6-0.2c-0.2-0.1-0.3-0.1-0.5-0.1c-0.2,0.1-0.4,0-0.5-0.1c-0.2-0.1-0.4-0.2-0.6-0.2c0.1,0.1,0.2,0.2,0.3,0.3
		c0.1,0,0.2,0.2,0.2,0.4c-0.4-0.2-0.7-0.4-0.9-0.7c-0.2-0.3-0.4-0.4-0.6-0.3c0,0-0.1,0-0.1-0.1c0,0-0.1-0.1-0.2-0.1
		c-0.1-0.1-0.2-0.2-0.3-0.2c-0.1,0-0.2-0.1-0.4-0.1v0.3c0,0.1,0,0.2,0.1,0.4c0,0.5,0.3,0.9,0.9,1.2c0.4,0.2,0.8,0.4,1.2,0.5
		c0.4,0.2,0.8,0.4,1.2,0.6c0.4,0.1,0.7,0.3,1,0.4c0.3,0.2,0.6,0.3,1,0.5l1.4,0.6c0.1,0,0.2,0,0.3,0.1c0-0.1,0-0.2,0-0.2
		c0,0,0-0.1,0-0.2c0.1,0,0.2,0.1,0.3,0.1c0.1,0,0.2,0.1,0.3,0.1c0.2,0.6,0.6,1,1,1.1c0.1,0.2,0.2,0.4,0.4,0.5
		c0.2,0.1,0.3,0.2,0.5,0.3c0.1,0,0.1,0.2,0.1,0.4v0.4c0.1-0.1,0.3-0.2,0.5-0.3c0.2,0.2,0.3,0.3,0.3,0.4c0,0.1,0.1,0.2,0.1,0.5
		c0.2,0.1,0.4,0.3,0.6,0.4c0.2,0.1,0.3,0.2,0.6,0.4c0-0.1,0-0.2,0.1-0.4c0.1,0,0.2-0.1,0.2-0.1c0,0,0.1,0,0.2-0.1
		c0,0-0.1-0.1-0.1-0.2v-0.1h0.2c0,0.1,0.1,0.3,0.2,0.5c-0.2,0-0.4,0.1-0.5,0.3l0.4,0.6h-0.1c0,0.1,0,0.2,0,0.2c0,0,0,0.1,0,0.1
		c0,0.2,0.1,0.4,0.1,0.4c0,0,0.2,0,0.5-0.1c0,0.2,0,0.3,0.1,0.4c0,0.2,0.2,0.4,0.3,0.8c0.3,0.3,0.3,0.6,0.1,0.9
		c0.1,0,0.2,0.1,0.3,0.2c0,0.2-0.1,0.5-0.1,0.7c0,0.2-0.1,0.5-0.1,0.8c0.1,0,0.2,0.2,0.4,0.3c0-0.1,0.1-0.2,0.1-0.3
		c0-0.1-0.1-0.2-0.1-0.2c0,0-0.1-0.1-0.1-0.2l0.4-0.6c0.2,0.2,0.3,0.3,0.3,0.4c0,0.1,0,0.2,0,0.3v1c0,0.3-0.1,0.5-0.2,0.6
		c-0.1,0-0.2,0.2-0.3,0.3c0,0-0.2,0.1-0.3,0.2c0,0.1-0.1,0.3-0.1,0.6c-0.1,0-0.3,0.1-0.5,0.2L95.2,57c0.1,0.2,0.1,0.4,0,0.5
		c-0.1,0.1-0.1,0.3-0.2,0.4c0,0.1-0.1,0.1-0.2,0.1c-0.3,0.1-0.4,0.3-0.4,0.5c0,0.2-0.1,0.4-0.2,0.5c-0.1,0.1-0.2,0.2-0.4,0.3
		c-0.2,0.2-0.4,0.3-0.7,0.5c-0.2,0.1-0.4,0.3-0.7,0.4c-0.1,0.1-0.2,0.2-0.3,0.2c-0.1,0-0.2,0.2-0.4,0.3c-0.3,0.3-0.5,0.4-0.6,0.5
		c-0.3,0.1-0.5,0.3-0.7,0.4c-0.2,0.1-0.4,0.3-0.7,0.5c-0.1-0.1-0.1-0.2,0-0.3c0.1-0.1,0.1-0.2,0.1-0.3c-0.1-0.1-0.2-0.2-0.3-0.4
		h-0.2c-0.4,0.1-0.6,0.2-0.7,0.3c0,0.1-0.2,0.1-0.3,0.1c-0.1,0.1-0.1,0.1-0.1,0.1c-0.3,0-0.5,0.1-0.8,0.1c-0.2,0-0.5,0.2-0.6,0.4
		c-0.1,0-0.2,0-0.3-0.1c-0.1-0.1-0.2-0.1-0.3,0c-0.1,0.1-0.1,0.2-0.2,0.2c0,0.1-0.1,0.1-0.1,0.2c0,0.1-0.1,0.2-0.3,0.3
		c-0.1,0.1-0.3,0.1-0.4-0.1h-0.1c-0.2-0.2-0.4-0.3-0.4-0.3c-0.1,0-0.2,0.1-0.4,0.3c-0.2,0.2-0.5,0.4-0.8,0.4c0-0.1-0.1-0.2-0.1-0.2
		c0,0,0-0.1-0.1-0.1c-0.2,0-0.3,0-0.5,0.1l-0.4,0.4l-0.2-0.2c0,0-0.1,0-0.1,0c0,0-0.1,0-0.1,0L82,63c-0.2-0.1-0.4,0-0.5,0.3
		c0,0-0.1,0.2-0.2,0.5c-0.2,0-0.5,0.1-0.7,0.2c0-0.3,0-0.4-0.1-0.5c0-0.1-0.1-0.2-0.3-0.2c0,0-0.1,0-0.1,0c0,0,0,0-0.1,0h-0.1
		c-0.1,0.1-0.1,0.3,0.1,0.4c0,0,0,0.1,0.1,0.1c0,0-0.1,0-0.1,0.1c0,0-0.1,0.1-0.1,0.1c-0.3,0-0.5-0.1-0.8-0.1
		c-0.2,0-0.5-0.1-0.8-0.1c-0.1,0-0.2-0.1-0.2-0.1c-0.1,0-0.1-0.1-0.2-0.1c-0.9-0.4-1.8-0.8-2.6-1.2c-0.7-0.4-1.3-0.8-1.9-1.3
		c-0.5-0.4-1-1-1.5-1.6c-0.1-0.1-0.1-0.2-0.1-0.2c0-0.1,0-0.1-0.1-0.2c-0.3-0.3-0.5-0.6-0.7-0.9c-0.2-0.3-0.3-0.6-0.4-1l-0.1-0.1
		c0-0.2-0.1-0.4-0.1-0.7c0-0.2,0.1-0.4,0.3-0.6c0.1-0.1,0.1-0.2,0.1-0.2c0-0.1,0-0.1,0.1-0.2c0-0.1,0.1-0.1,0.1-0.2
		c0,0,0.1-0.1,0.1-0.1l1,0.4c0-0.2,0-0.4-0.1-0.5c0-0.1-0.1-0.3-0.2-0.4c-0.3-0.4-0.5-0.9-0.7-1.4c-0.2-0.5-0.3-1-0.4-1.5
		c0-0.1,0-0.2,0-0.3c0-0.1,0-0.2,0.1-0.3c0,0,0.1,0,0.1-0.1c-0.2-0.1-0.2-0.2-0.2-0.4c0-0.2,0-0.3,0-0.4c0-0.1,0-0.3,0-0.4
		c0-0.1,0.1-0.2,0.1-0.4c0.1-0.1,0.1-0.3,0-0.5c0-0.1-0.1-0.2,0-0.3c0-0.1,0-0.2,0-0.3l0.4-1.4c0-0.1,0.1-0.2,0.1-0.3
		c0-0.1,0.1-0.2,0.2-0.2h0.1c0.2-0.4,0.6-0.5,1.1-0.3c0.2,0.1,0.3,0.1,0.5,0.2c0.2,0,0.3,0.1,0.4,0.4c0.1-0.1,0.2-0.1,0.2-0.2
		c0.1,0,0.1-0.1,0.2-0.2l0.2,0.2c0.1,0,0.1-0.1,0.1-0.2c0-0.1,0-0.2,0.1-0.2c0,0.3-0.1,0.5-0.1,0.8c0,0.3,0,0.5,0,0.7
		c0,0.2,0,0.4,0,0.6c0,0.2,0,0.3-0.1,0.6c0,0.1,0,0.3-0.1,0.4c0,0.1,0,0.3,0.1,0.4v0.3c-0.1,0.5,0,1,0.1,1.3c0,0.1,0.1,0.2,0.1,0.3
		c0,0.1,0,0.2,0.1,0.3c0,0.1,0,0.3,0,0.4c0,0.1,0.1,0.2,0.2,0.3c0,0,0.1,0.1,0.1,0.2c0.2,0.4,0.3,0.6,0.5,0.7
		c0.1,0.1,0.1,0.2,0.2,0.3c0,0.1,0.1,0.2,0.2,0.3c-0.1,0.1-0.2,0.1-0.3-0.1l-0.5-0.5c-0.1-0.1-0.2-0.2-0.3-0.2
		c0,0.6,0.2,1.1,0.5,1.5c0.2,0.4,0.4,0.7,0.7,1.1c0.2,0.4,0.5,0.7,0.8,1l0.4,0.4c0.2,0.1,0.3,0.2,0.4,0.4c0,0.1,0.1,0.1,0.1,0.2
		c0,0,0.1,0.1,0.1,0.2c0.2,0.4,0.5,0.5,0.9,0.5c0.4,0,0.7,0.1,1,0.1c0.3,0,0.6,0.1,0.9,0.2c0.2,0,0.4,0.1,0.5,0.2
		c-0.2,0.1-0.3,0.1-0.5,0c-0.2-0.1-0.3-0.1-0.5,0c-0.1,0.1-0.3,0.1-0.4,0c-0.2-0.1-0.3-0.1-0.5,0c0.1,0.2,0.3,0.3,0.5,0.4
		c0.1,0,0.3,0.1,0.4,0.1c0.1,0,0.2,0,0.4,0h2.3c0.2,0,0.5,0,0.9-0.1c0.4-0.2,0.9-0.4,1.3-0.6c0.4-0.2,0.8-0.4,1.2-0.7
		c0.2-0.1,0.3-0.2,0.5-0.3c0.1-0.1,0.3-0.2,0.5-0.3c0-0.2-0.1-0.3-0.3-0.2c-0.1,0-0.2,0-0.3,0.1c-0.2,0.2-0.4,0.3-0.7,0.3
		c-0.2,0-0.4,0.1-0.7,0.1c-0.4,0.1-0.8,0.1-1.2,0.2c-0.4,0-0.8,0.1-1.2,0.2h-0.2c-0.3-0.1-0.6-0.1-0.9-0.1c-0.3,0-0.6,0-0.9,0h-0.3
		c0.1-0.3,0.2-0.4,0.4-0.3h0.3c1.5,0.1,2.9-0.1,4.4-0.6c0.3-0.1,0.6-0.2,0.9-0.3c0.3-0.1,0.6-0.3,0.8-0.5c0,0,0.1-0.1,0.1-0.1
		c0,0,0.1,0,0.1-0.1c0.2-0.2,0.4-0.4,0.5-0.5c0.1-0.1,0.1-0.4,0-0.8c-0.1-0.3-0.2-0.5-0.2-0.8c0-0.2-0.1-0.5-0.1-0.8
		c0-0.4-0.1-0.7-0.4-0.9c-0.1-0.2-0.3-0.4-0.4-0.5c-0.1-0.2-0.2-0.4-0.3-0.6c0-0.1,0-0.1-0.1-0.2c-0.1,0-0.1-0.1-0.2-0.2
		c-0.3-0.2-0.4-0.4-0.5-0.5c0-0.1-0.1-0.1-0.1-0.2c0,0-0.1-0.1-0.2-0.2c-0.4-0.2-0.8-0.4-1.2-0.8c-0.1-0.1-0.2-0.2-0.3-0.2
		c-0.1,0-0.3-0.1-0.4-0.2c-0.3-0.2-0.5-0.3-0.8-0.5c-0.3-0.1-0.5-0.3-0.7-0.5c-0.3-0.2-0.6-0.4-0.9-0.6c-0.3-0.2-0.5-0.4-0.8-0.5
		c-0.4-0.3-0.6-0.4-0.9-0.5c-0.5-0.3-0.9-0.6-1.2-0.9c-0.1-0.1-0.2-0.2-0.2-0.2c0,0-0.1-0.1-0.2-0.1c-0.1-0.1-0.2-0.2-0.3-0.3
		c-0.1-0.1-0.2-0.2-0.3-0.3c-0.1-0.1-0.2-0.3-0.3-0.4c-0.1-0.2-0.2-0.3-0.3-0.4c-0.1-0.1-0.1-0.2-0.2-0.3c0-0.1-0.1-0.2-0.2-0.3
		c-0.2-0.4-0.4-0.8-0.5-1.2c-0.1-0.4-0.1-0.9-0.1-1.4c0-0.4,0-0.7,0-1c0.1-0.3,0.1-0.6,0.1-1c0,0,0-0.1,0-0.1c0,0,0-0.1,0-0.2
		c0.2-0.3,0.4-0.6,0.6-0.9c0.2-0.3,0.4-0.5,0.6-0.8c0,0,0.1-0.1,0.1-0.1c0,0,0.1,0,0.1-0.1c0.1-0.3,0.3-0.5,0.5-0.7
		c0.2-0.2,0.4-0.4,0.6-0.6c0.2-0.2,0.3-0.4,0.5-0.6c0.1-0.2,0.3-0.4,0.4-0.6c0.2-0.3,0.3-0.5,0.5-0.8c0.1-0.2,0.3-0.5,0.6-0.6
		c0.1-0.2,0.2-0.4,0.4-0.5c0.2-0.1,0.3-0.2,0.4-0.4c0.1-0.1,0.2-0.2,0.3-0.2c0.2,0,0.4-0.1,0.6-0.2c0.2-0.1,0.3-0.2,0.5-0.3
		c0.3-0.2,0.6-0.4,0.9-0.6s0.5-0.4,0.8-0.6c0.2-0.2,0.4-0.3,0.8-0.4c0.3,0,0.6-0.1,0.8-0.3c0.2-0.2,0.5-0.3,0.8-0.4
		c0,0,0.1-0.1,0.1-0.2c0-0.1,0-0.2,0.1-0.3c0.2-0.1,0.5-0.2,0.8-0.3c0.3,0,0.6-0.1,0.9-0.2c0.3-0.1,0.6-0.1,0.9-0.1
		c0.3,0,0.6,0.1,0.9,0.2c0.6,0.1,1.1,0.3,1.5,0.5c0.2,0.1,0.4,0.2,0.6,0.1c0.1-0.1,0.2-0.1,0.3-0.1c0.1,0,0.2,0.1,0.3,0.1
		c0.2,0,0.3,0.1,0.3,0.3v0.2c0.3,0.2,0.6,0.4,1,0.5c0.3,0.1,0.6,0.4,0.8,0.7c-0.1,0.1-0.3,0.2-0.5,0.3c0,0.2,0.1,0.4,0.1,0.6
		c0,0.2,0.1,0.3,0.1,0.5l0.4,0.2c0.4,0.3,0.6,0.6,0.7,0.9c0,0.1,0,0.2,0.1,0.4c0.1,0.2,0.2,0.3,0.4,0.3c0.1,0,0.1,0.1,0.1,0.3
		c0,0.2-0.1,0.4-0.2,0.6c-0.1,0.2-0.1,0.3-0.2,0.6c0.1,0,0.2,0.1,0.2,0.1C96.5,34.3,95.7,35.4,95.7,35.3z M77.8,62.4
		c0.2,0,0.2-0.1,0.1-0.2c0-0.1-0.1-0.1-0.2-0.1c-0.2-0.1-0.4-0.2-0.8-0.3c-0.1,0-0.2-0.1-0.3-0.1c-0.1,0-0.2,0-0.2,0h-0.3
		c0,0-0.1,0-0.2,0.1c0,0,0.1,0,0.1,0.1c0,0.1,0,0.1,0.1,0.1c0,0,0.1,0,0.1,0c0,0,0.1,0,0.1,0c0.2,0.1,0.5,0.1,0.7,0.2
		c0.2,0,0.5,0.1,0.7,0.2C77.7,62.5,77.8,62.4,77.8,62.4z M76.1,54.3l0.1,0.1h0.1l-0.1-0.1H76.1z M77.6,55.9c0-0.2-0.1-0.3-0.3-0.3
		C77.3,55.8,77.4,55.9,77.6,55.9z M78,57.4l-0.1,0.1l0.1,0.1c0,0,0-0.1,0-0.1C78.1,57.5,78.1,57.5,78,57.4L78,57.4z M79,57L79,57
		c-0.1,0.1,0,0.1,0,0.1C79.1,57.2,79.1,57.1,79,57C79.1,57.1,79.1,57,79,57z M80.2,57.8L80.2,57.8L80.2,57.8L80.2,57.8
		C80.2,57.9,80.2,57.9,80.2,57.8z M81.2,62.4L81.2,62.4L81.2,62.4L81.2,62.4L81.2,62.4z M81.6,58.7c0.2,0.1,0.4,0.1,0.6-0.1
		C81.9,58.6,81.7,58.7,81.6,58.7z M82.2,30.3L82.2,30.3L82.2,30.3L82.2,30.3z M82.5,58.6c0,0,0,0.1-0.1,0.2c0,0,0.1,0,0.1,0
		c0,0,0.1,0,0.1,0c0.2-0.1,0.3-0.1,0.4-0.1c-0.1-0.1-0.2-0.2-0.2-0.2C82.7,58.6,82.6,58.6,82.5,58.6z M83.1,29.6
		c0,0,0.1-0.1,0.1-0.1c0,0,0-0.1,0.1-0.1l-0.1-0.1h-0.1C83,29.4,83,29.5,83,29.5v0.1H83.1z M84.1,58.4c-0.1,0-0.2,0-0.2,0
		c-0.1,0-0.1,0-0.2,0c0,0-0.1,0-0.2,0.1v0.1c0.1,0,0.1,0,0.2,0c0,0,0.1,0,0.1,0c0,0,0.1-0.1,0.1-0.1C83.9,58.5,84,58.5,84.1,58.4z
		 M84.5,28.8l0.1-0.3c-0.2,0-0.3,0-0.4,0.1c0,0.1,0,0.2,0.1,0.2C84.3,28.9,84.4,28.9,84.5,28.8z M86.2,27.7c-0.1,0-0.3,0.1-0.4,0.1
		c-0.1,0-0.3,0.1-0.4,0.1c-0.1,0-0.1,0.1,0,0.3C85.8,28,86,27.8,86.2,27.7z M85.7,42.4c0,0.2,0.2,0.3,0.5,0.3
		c-0.2-0.2-0.3-0.3-0.3-0.3C85.8,42.4,85.8,42.4,85.7,42.4z M85.8,34.8L85.8,34.8h0.1H85.8z M85.9,34.8c0.2,0,0.2-0.2,0.1-0.3
		c0,0.1,0,0.1,0,0.2C85.9,34.7,85.9,34.7,85.9,34.8L85.9,34.8z M86.4,27.7h-0.1l-0.1,0.1l0.1-0.1H86.4z M88.9,44.1
		c0-0.2,0-0.3,0.1-0.5l-0.8-0.4C88,43.3,88,43.4,88,43.4c-0.3-0.1-0.4-0.2-0.5-0.2c-0.1,0-0.1-0.1-0.2-0.1c0,0-0.1-0.1-0.2-0.2
		l-0.4,0.2c0.2,0.1,0.4,0.2,0.6,0.3c0.2,0.1,0.3,0.2,0.6,0.3c0.1,0.1,0.2,0.1,0.2,0.2c0.1,0,0.1,0.1,0.2,0.2
		c0.2,0.1,0.3,0.2,0.4,0.4c0.1,0.2,0.3,0.3,0.4,0.3c0.1-0.2,0.1-0.4,0-0.4C89.1,44.2,89,44.2,88.9,44.1z M88,62.2
		c-0.1,0.1-0.2,0.2-0.3,0.2c0,0.1-0.1,0.3-0.2,0.6c0.3-0.1,0.4-0.2,0.5-0.2c0-0.1-0.1-0.2-0.2-0.3C88,62.4,88,62.3,88,62.2z
		 M88.2,42.5C88.2,42.5,88.2,42.5,88.2,42.5C88.2,42.5,88.2,42.5,88.2,42.5L88.2,42.5z M89.2,43c-0.3-0.4-0.6-0.5-1-0.5
		c0.4,0.2,0.6,0.4,0.6,0.4C88.9,43,89,43,89.2,43z M88.6,62.7h0.1c0,0,0.1-0.1,0.1-0.1c0,0-0.1,0-0.1,0c0,0,0,0-0.1,0L88.6,62.7z
		 M89.8,43.2L89.8,43.2l-0.2,0.1c0.4,0.4,0.7,0.6,0.9,0.8c0.3,0.2,0.4,0.3,0.5,0.3C90.7,43.8,90.3,43.4,89.8,43.2z M90.2,61.3
		c0,0.1,0,0.2,0.1,0.3h0.1c0.1-0.1,0.3-0.2,0.4-0.3c0.2-0.1,0.3-0.2,0.4-0.3c0,0,0.1,0,0.1-0.1l0.1-0.1v-0.1l-0.1-0.1
		c-0.1,0.1-0.3,0.2-0.4,0.2c-0.2,0.1-0.3,0.1-0.4,0.2c0,0-0.1,0.1-0.1,0.1C90.3,61.2,90.3,61.3,90.2,61.3z M91.1,32.9
		c0-0.2,0.1-0.3,0.2-0.3c0.2,0,0.2-0.1,0.2-0.3c-0.3-0.1-0.5-0.2-0.7-0.2c0,0.1,0.1,0.2,0.1,0.2c0,0,0,0.1,0,0.2
		c0,0-0.2,0.1-0.3,0.2c0.1,0,0.2,0.1,0.2,0.1C90.9,32.8,91,32.9,91.1,32.9z M92.7,46c-0.3,0-0.5-0.1-0.5-0.4c0-0.1-0.1-0.3-0.2-0.4
		c-0.1-0.1-0.1-0.3-0.1-0.4c0-0.2-0.1-0.2-0.3-0.1c-0.1,0-0.1,0.1-0.2,0.1c0,0-0.1,0.1-0.2,0.1c0.1,0.2,0.3,0.3,0.4,0.5
		c0.1,0.2,0.2,0.3,0.4,0.4c0.5,0.5,0.8,1,1,1.5l0.2,0.2c0-0.2-0.1-0.4-0.1-0.7c0-0.2,0-0.4,0.1-0.7C93.1,46.1,92.9,46,92.7,46z
		 M92.3,32.7c0.2,0.1,0.3,0,0.4-0.2c-0.1-0.1-0.3-0.1-0.5-0.1l-0.1,0.1C92.2,32.7,92.2,32.7,92.3,32.7z M93.4,32.9L93.4,32.9
		l-0.1-0.1l-0.1,0.1C93.3,32.8,93.3,32.9,93.4,32.9z M93.4,48.3c0.1-0.1,0.2-0.3,0.3-0.4c0.1-0.1,0.2-0.3,0.3-0.5
		c-0.1,0-0.2,0.1-0.3,0.1c-0.1,0-0.2,0-0.3,0.1C93.3,47.8,93.3,48,93.4,48.3z M94.6,30.6L94.6,30.6L94.6,30.6l-0.1-0.1
		C94.5,30.5,94.6,30.6,94.6,30.6z M95.1,28.9l-0.1-0.2h-0.2c0,0,0.1,0.1,0.1,0.1c0,0,0,0.1,0.1,0.1H95.1z M94.8,51.9
		c-0.1,0.3,0,0.6,0.3,0.8c0.2-0.4,0.3-0.6,0.3-0.6c-0.1-0.1-0.1-0.3-0.1-0.4c0-0.1-0.1-0.2-0.2-0.3c-0.1,0.1-0.1,0.2-0.1,0.2
		C94.9,51.7,94.8,51.8,94.8,51.9z M96.7,56.2c-0.2,0-0.3,0-0.4,0.1c-0.1,0.1-0.2,0.1-0.3,0.2c-0.1,0.1,0,0.2,0.1,0.2
		c0.1-0.1,0.2-0.1,0.3-0.2C96.6,56.6,96.6,56.4,96.7,56.2z M96.5,56.9C96.5,56.9,96.5,57,96.5,56.9c0.1,0,0.2,0,0.2,0l-0.1-0.1
		L96.5,56.9z"/>
	<g>
		<path d="M145.7,3.2c0,0.1-0.1,0.2-0.1,0.2c0.1,0.2,0.2,0.3,0.2,0.3c0.1,0.2,0.1,0.4,0.1,0.6c0,0.1,0.1,0.2,0.1,0.5
			c0,0.1,0,0.2,0.1,0.3c0,0.1,0,0.2-0.1,0.3c0,0.1,0,0.2-0.1,0.2c-0.1,0.1-0.2,0.2-0.2,0.2c-0.1,0-0.1,0.1-0.2,0.1
			c0,0-0.1,0-0.1,0.1c0,0,0,0.1-0.1,0.1v0.1l-0.1,0.3l-0.3,0.1c0,0.2-0.2,0.3-0.3,0.3c-0.1,0.1-0.2,0.2-0.3,0.3
			c-0.1,0.1-0.2,0.2-0.3,0.3c0,0-0.1,0-0.1,0.1c0,0,0,0.1-0.1,0.1c-0.2,0.1-0.4,0.2-0.5,0.3c-0.2,0.1-0.3,0.2-0.4,0.3
			c-0.1,0.1-0.2,0.1-0.2,0.2c0,0-0.1,0.1-0.2,0.2c0,0-0.1,0.1-0.2,0.1c-0.1,0-0.1,0.1-0.2,0.1h-0.2c-0.1,0.1-0.2,0.2-0.3,0.3
			c-0.1,0.1-0.3,0.1-0.4,0.2c-0.2,0.1-0.3,0.2-0.4,0.3c0,0-0.1,0.1-0.2,0.1s-0.1,0-0.2,0.1c-0.1,0-0.2,0.1-0.3,0.2
			c-0.1,0.1-0.3,0.2-0.4,0.3c-0.1,0.1-0.3,0.2-0.5,0.4c-0.2,0.1-0.5,0.2-0.7,0.4c-0.2,0.2-0.5,0.3-0.7,0.4c-0.1,0-0.3,0.1-0.5,0.3
			c-0.4,0.1-0.7,0.2-1,0.5c-0.1,0-0.2,0.1-0.2,0.2c-0.1,0.1-0.1,0.1-0.2,0.2c-0.1,0.1-0.3,0.2-0.4,0.2c-0.1,0-0.2,0.1-0.3,0.2
			c-0.1,0.1-0.2,0.2-0.2,0.2c-0.1,0-0.1,0.1-0.2,0.1c-0.1,0.1-0.2,0.2-0.3,0.2c-0.1,0-0.1,0-0.1,0.1c-0.1,0-0.2,0-0.2,0.1
			c-0.1,0-0.2,0.1-0.2,0.1c0,0-0.1,0.1-0.2,0.1c0,0-0.1,0.1-0.3,0.2c0,0-0.1,0-0.1,0c0,0,0,0-0.1,0c-0.1,0-0.2,0.1-0.3,0.2
			c-0.1,0.1-0.2,0.1-0.3,0.1c-0.1,0-0.2,0.1-0.2,0.1c-0.1,0-0.1,0.1-0.2,0.1l-0.3,0.1c-0.2,0-0.4,0.1-0.5,0.3c0,0.1-0.2,0.2-0.3,0.3
			c-0.1,0-0.2,0.1-0.3,0.2c-0.1,0.1-0.2,0.1-0.3,0.2c-0.1,0-0.3,0.1-0.6,0.3v-0.2c0,0.4-0.1,0.6-0.4,0.6c-0.3,0.2-0.5,0.3-0.6,0.5
			c-0.3,0.3-0.5,0.5-0.7,0.6c-0.1,0.1-0.3,0.3-0.4,0.4c-0.1,0.1-0.3,0.2-0.4,0.2c-0.1,0-0.3,0.1-0.4,0.2c-0.1,0.1-0.3,0.2-0.4,0.3
			c-0.1,0.1-0.3,0.2-0.7,0.3l-0.1,0.1c-0.1,0-0.2,0.2-0.4,0.3c-0.2,0.1-0.3,0.2-0.4,0.4l-0.3,0.1c-0.1,0.2-0.2,0.3-0.2,0.3
			c-0.5,0.3-0.7,0.5-0.9,0.8c-0.1,0-0.1,0-0.1,0.1c0,0.1,0,0.2-0.1,0.3c-0.1,0.1-0.1,0.2-0.2,0.3c0,0.1,0,0.1,0,0.2c0,0,0,0.1,0,0.1
			c-0.1,0.3-0.2,0.5-0.3,0.5c0,0-0.1,0-0.1,0c0,0-0.1,0-0.2,0c-0.2,0-0.4,0-0.5,0.1c0,0.2-0.1,0.3-0.2,0.3c0,0.1,0,0.1-0.1,0.2
			c0,0-0.1,0.1-0.1,0.1c-0.1,0.1-0.1,0.2-0.2,0.2c0,0.1-0.1,0.1-0.1,0.2h-0.1c-0.1,0.1-0.2,0.2-0.1,0.3c0.1,0.2,0.1,0.3,0.1,0.4
			c0,0-0.1,0.1-0.1,0.2c0,0.1-0.1,0.1-0.2,0c0.1,0.1,0.1,0.3-0.1,0.5v0.1c0,0.1,0.1,0.2,0,0.2c0,0.1,0,0.1,0,0.2c0,0.1,0,0.2,0,0.3
			c0,0.1,0,0.2,0,0.3c0,0,0,0.1,0.1,0.1c0.1,0,0.1,0.1,0,0.1c0.1,0.2,0.2,0.3,0.1,0.3c0,0.1,0,0.2,0.1,0.3c-0.1,0-0.1,0.1,0,0.2
			c0.1,0.1,0.1,0.1,0,0.2h0.1c0,0,0,0.1-0.1,0.1c0.1,0.1,0.1,0.2,0.1,0.2c0,0.1,0,0.1,0.1,0.1c0,0,0.1,0,0.1,0.1l0.1,0.1v0.3
			c0,0.1,0,0.2,0,0.3c0,0.1,0,0.2,0,0.3c0,0.2,0.1,0.4,0.1,0.7c0.1,0,0.1,0,0.1,0c0,0,0,0,0.1,0c0,0,0.1,0.1,0.1,0.3
			c-0.1,0.1-0.1,0.2-0.1,0.3c0,0.1,0,0.2-0.1,0.2c0,0-0.1,0.1-0.1,0.2c0.1,0.2,0.1,0.3,0,0.5v0.2c0,0,0,0.1-0.1,0.1
			c0,0,0.1,0.1,0.1,0.1c0,0,0.1,0.1,0.1,0.1v0.1c-0.1,0.1-0.1,0.2-0.1,0.2c0,0,0.1,0,0.1,0h0.1v0.1c-0.2,0.1-0.3,0.2-0.3,0.3h0.1
			c0.1,0.1,0.1,0.1,0.1,0.2c0,0,0,0.1,0.1,0.2v0.1c0,0,0,0.1,0,0.3c0,0.1,0,0.2-0.1,0.3c0,0,0.1,0.1,0.1,0.1h0.1h0.1
			c0,0,0,0.1,0,0.2c0,0.1,0,0.1,0,0.2c0.1,0,0.1-0.1,0.2-0.2c0-0.1,0.1-0.1,0.2-0.2c0,0,0,0.1,0,0.1c0,0,0,0.1,0,0.2
			c-0.1,0.2-0.1,0.3,0,0.5c0.2,0.3,0.2,0.5,0.1,0.7c0,0.1,0,0.2,0.1,0.2v0.1c0,0.1,0.1,0.3,0.1,0.5c0.1,0.5,0.2,0.8,0.3,1v0.2
			c0,0,0,0.1-0.1,0.1c-0.1,0.1-0.1,0.2-0.1,0.3c0,0.3,0,0.5,0.1,0.7c0,0.1,0,0.2,0,0.3c0.1,0.1,0.1,0.2,0.1,0.3c0,0.2,0,0.3-0.1,0.4
			c0,0.1,0,0.2,0.1,0.4c0,0.1,0,0.3-0.1,0.4c0,0.1-0.1,0.3-0.1,0.5c0,0.1,0,0.2,0.1,0.2c0,0.1,0.1,0.2,0,0.3c0,0.1,0,0.2,0,0.3v0.1
			c0,0.1,0,0.2,0,0.3c0,0.1,0.1,0.2,0.1,0.3v0.5c0,0.1,0,0.2,0.1,0.3c0,0.1,0,0.1-0.1,0.1c0,0-0.1,0-0.1,0c0,0,0,0-0.1,0h0.1v-0.1
			c0.1-0.1,0.1-0.2,0.1-0.3v-0.3c0,0.1-0.1,0.2-0.1,0.2c0,0.1,0,0.1-0.1,0.2h-0.2c0-0.1,0.1-0.2,0.1-0.3c-0.1,0-0.3,0-0.3,0.1
			c0,0.2,0,0.5,0.3,0.7c0,0,0-0.1,0-0.1c0,0,0,0,0-0.1c0,0.1,0.1,0.2,0.1,0.3c0,0,0.1-0.1,0.3-0.1c0.2-0.1,0.3,0,0.3,0.1v0.3
			c-0.1,0.1-0.1,0.2-0.1,0.2c0,0,0.1,0.1,0.2,0.1l0.1,0.1c0,0.1,0,0.2,0.1,0.2c0,0.1,0.1,0.1,0.1,0.2c0,0,0,0.1-0.1,0.1
			c0,0-0.1,0.1-0.1,0.2v-0.1c0,0-0.1-0.1-0.1-0.1l-0.3,0.1c0.1,0.1,0.1,0.2,0.1,0.3c-0.1,0-0.2,0.1-0.2,0.3c0,0.1,0,0.2,0,0.3
			c0,0.1,0.1,0.2,0.2,0.2c0,0,0.1,0.1,0.2,0.2c0,0.1,0,0.1,0.1,0.2c0,0,0.1,0.1,0.1,0.2c0,0.1,0,0.1-0.1,0.1c-0.1,0-0.1,0-0.2,0
			c-0.1,0-0.2,0-0.2,0.1c0.2,0,0.3,0,0.5-0.1c0,0,0,0.1-0.1,0.2c0,0.1-0.1,0.1-0.1,0.2c-0.1,0-0.2,0-0.3,0.1c0,0,0.1,0,0.1,0
			c0,0,0,0,0.1,0c0,0,0,0.1,0.1,0.1c0.1,0,0.1,0,0.1,0c0,0,0,0.1,0.1,0.1c0,0.5,0,0.8-0.1,1v0.5c0,0.1,0,0.2,0,0.4
			c0,0.2,0,0.3,0,0.5c0,0.2,0,0.4,0.1,0.5c0.1,0.2,0.1,0.3,0.1,0.5c0,0-0.1,0.1-0.2,0.1c-0.1,0-0.1,0.1,0,0.2h0.1c0,0,0,0.1,0.1,0.2
			c0,0.1,0,0.1-0.1,0.2v0.1c0,0.2,0,0.4-0.1,0.6c0,0.1-0.1,0.2-0.1,0.2c0,0.1-0.1,0.1-0.1,0.2c0.1,0.1,0.1,0.3,0.1,0.4
			c0,0.1,0,0.3,0.1,0.4v0.1v0.3c0.1,0.1,0.1,0.2,0.1,0.2c0,0.1,0,0.1,0,0.2c0,0.2,0,0.4,0.1,0.5c0,0,0.1,0.1,0.1,0.2
			c0,0.1,0,0.2,0,0.2c0,0.1,0,0.1,0,0.2c0.1,0.2,0.2,0.3,0.2,0.3c0,0.1,0,0.2,0,0.2c0,0,0,0.1,0,0.2c0,0,0,0.1,0.1,0.3
			c0,0,0,0.1,0,0.1c0,0,0,0.1,0,0.1c0.1,0.1,0.1,0.3,0.1,0.4s0,0.3,0.1,0.4c0,0.1,0,0.2,0.1,0.3c0,0.1,0.1,0.2,0.1,0.3
			c0,0.4,0,0.7,0.1,0.7v0.3c0.1,0.2,0.1,0.4,0.1,0.6c0,0.2-0.1,0.4-0.1,0.6c0,0.4,0.1,0.7,0.2,0.8v0.2c0,0.2,0,0.4,0.1,0.5
			c0.1,0.2,0.2,0.5,0.3,1c0,0.1,0,0.3,0.1,0.4c0,0.1,0.1,0.3,0.1,0.5c0,0,0,0.2,0.1,0.3v0.7c0,0.1,0,0.3,0.1,0.4
			c0,0.2,0,0.4,0.1,0.5c0,0.2,0.1,0.3,0.1,0.5c0,0.2,0,0.4,0,0.5c0,0.2,0,0.4,0.1,0.5c0,0.2,0.1,0.4,0.1,0.6s0,0.4,0,0.6v0.1v0.1
			c0.1,0.2,0.1,0.4,0.1,0.6c0,0.2,0,0.4,0.1,0.6v0.1v0.3c0,0.1,0.1,0.3,0.2,0.4c0.1,0.2,0.1,0.3,0.2,0.5l0.1,0.1
			c0.1,0.3,0.1,0.5,0.2,0.7c0,0.2,0.1,0.4,0.1,0.6c0,0.2,0.1,0.4,0.1,0.6c0,0.1,0,0.3,0.1,0.4c0,0.1,0.1,0.2,0.1,0.2
			c0,0.1,0,0.1,0.1,0.2c0,0.3,0.1,0.6,0.3,0.8c0.2,0.4,0.4,0.7,0.6,0.9c0.1,0.3,0.2,0.5,0.2,0.8c0,0.1,0,0.1,0.1,0.1
			c0,0,0.1,0.1,0.1,0.2c0,0.1,0.1,0.1,0.1,0.2c0.1,0.1,0.1,0.3,0.2,0.4c0,0.2,0.1,0.3,0.2,0.4c0.2,0.5,0.5,1,0.7,1.7
			c0.1,0.2,0.1,0.5,0.2,0.8c0,0.3,0.3,0.5,0,0.8s-1.2,0.4-1.3,0.2c-0.1-0.5-0.1-0.8-0.1-1v-0.1v-0.1c0-0.2,0-0.3-0.1-0.4
			c-0.1-0.1-0.1-0.2-0.2-0.3c-0.1-0.2-0.2-0.4-0.3-0.5c-0.1-0.2-0.2-0.3-0.3-0.5c-0.1-0.2-0.2-0.4-0.3-0.5c-0.1-0.2-0.2-0.3-0.3-0.5
			c-0.1-0.2-0.2-0.5-0.2-0.7c-0.1-0.2-0.1-0.5-0.2-0.7l-0.3-0.5c-0.1-0.6-0.3-1.3-0.6-1.9c-0.1-0.1-0.1-0.2-0.2-0.3
			c0-0.1-0.1-0.3-0.2-0.4c0,0-0.1-0.1-0.1-0.3c0-0.1-0.1-0.2-0.1-0.3c0-0.1-0.1-0.2-0.2-0.2c0,0-0.1,0-0.1-0.1V72c0-0.1,0-0.2,0-0.3
			c0-0.1,0-0.2,0-0.3c0-0.2-0.1-0.3-0.3-0.3h0.1c0-0.1-0.1-0.3-0.1-0.5c-0.1-0.1-0.1-0.2-0.1-0.3c0-0.1,0-0.2-0.1-0.2
			c-0.1-0.2-0.2-0.4-0.3-0.5c-0.1-0.2-0.1-0.3-0.2-0.4c0-0.1-0.1-0.3-0.2-0.4c0,0-0.1-0.1-0.1-0.2c0-0.1,0-0.2-0.1-0.3
			c-0.1-0.5-0.2-0.7-0.2-0.9c-0.1-0.2-0.2-0.4-0.2-0.6c0-0.2-0.1-0.4-0.1-0.6c-0.1-0.1-0.1-0.2-0.2-0.3c0-0.1-0.1-0.3-0.1-0.4
			c-0.1-0.3-0.2-0.6-0.3-0.8c0-0.2-0.1-0.4-0.1-0.6c0-0.2-0.1-0.3-0.1-0.5c-0.1-0.2-0.2-0.5-0.2-0.7c-0.1-0.2-0.1-0.5-0.2-0.7
			c-0.1-0.2-0.2-0.5-0.2-0.7c0-0.2-0.1-0.5-0.1-0.7c-0.1-0.3-0.2-0.5-0.2-0.8c0-0.2-0.1-0.5-0.2-0.8c0-0.1,0-0.2-0.1-0.2
			c-0.1-0.1-0.1-0.1-0.2-0.2c-0.1-0.3-0.1-0.4-0.1-0.3c0-0.1,0.1-0.1,0-0.1c0,0,0,0,0-0.1c-0.1-0.1-0.2-0.2-0.1-0.4v-0.1
			c-0.1-0.1-0.1-0.3-0.1-0.4c0-0.2,0-0.3-0.1-0.4c-0.1,0-0.1,0-0.1-0.1c0,0,0-0.1-0.1-0.1v-0.1c0,0,0-0.1,0-0.1c0,0,0,0,0-0.1
			c0,0,0.1-0.1,0.1-0.1c-0.2-0.2-0.3-0.4-0.3-0.5c0-0.2,0-0.4,0-0.6c-0.1-0.1-0.1-0.2-0.1-0.3c-0.1-0.2-0.2-0.5-0.2-0.7
			c0-0.3,0-0.5-0.1-0.7c-0.2-0.3-0.4-0.7-0.4-1c-0.1-0.1-0.1-0.3-0.2-0.4c0-0.2-0.1-0.3-0.1-0.4c0-0.2-0.1-0.3-0.2-0.5
			c-0.1-0.1-0.1-0.3-0.2-0.5c0,0,0-0.1,0-0.2c0-0.1,0-0.1,0-0.2c-0.1-0.3-0.1-0.5-0.2-0.8c0-0.2-0.1-0.5-0.2-0.7
			c-0.1-0.2-0.1-0.4-0.2-0.6c0-0.2-0.1-0.4-0.1-0.6c0-0.1,0-0.3,0-0.4c0-0.1,0-0.2,0-0.3c-0.1-0.1-0.1-0.2-0.1-0.3
			c0-0.1,0-0.2,0-0.3c0-0.2,0-0.3-0.1-0.3c0,0-0.1,0-0.1-0.1v-0.2c0-0.2-0.1-0.5-0.2-0.7c0-0.1-0.1-0.2-0.1-0.3
			c0-0.1-0.1-0.2-0.1-0.3c-0.1-0.2-0.2-0.4-0.2-0.6c0-0.2-0.1-0.4-0.1-0.7c-0.1-0.2-0.2-0.5-0.3-0.7c0-0.1,0-0.3,0-0.4
			c0-0.1,0-0.2,0-0.3c-0.1-0.1-0.1-0.2-0.1-0.3c0-0.1,0-0.2-0.1-0.3c0-0.2,0-0.4-0.1-0.7c-0.1-0.1-0.1-0.3-0.1-0.4
			c0-0.1,0-0.3-0.1-0.5c0-0.2-0.1-0.5-0.1-0.7c0-0.2-0.1-0.5-0.2-0.7c0-0.3,0-0.6-0.1-1.1c0-0.4-0.1-0.8-0.2-1.3l-0.2-1
			c0-0.1,0-0.2-0.1-0.2c0-0.1-0.1-0.1-0.1-0.2c-0.1-0.2-0.1-0.4-0.2-0.6c0-0.2-0.1-0.4-0.2-0.6c0-0.1-0.1-0.2-0.1-0.3
			c0-0.1,0-0.2-0.1-0.3c0-0.1-0.1-0.2-0.1-0.3c0-0.1,0-0.2-0.1-0.3c-0.1-0.4-0.2-0.7-0.2-1c-0.1-0.3-0.1-0.6-0.2-1
			c0-0.1,0-0.2,0-0.3c0-0.1,0-0.2,0-0.3c0,0,0-0.1-0.1-0.1c0,0-0.1-0.1-0.1-0.2c-0.1,0.1-0.2,0.2-0.2,0.3c-0.1,0.1-0.1,0.3-0.2,0.4
			c0,0.1-0.1,0.3-0.2,0.3c0,0.2,0,0.3-0.1,0.3c-0.1,0.2-0.2,0.4-0.3,0.5c-0.1,0.2-0.3,0.4-0.4,0.6c0,0.1-0.1,0.4-0.2,0.7
			c-0.1,0.1-0.1,0.2-0.2,0.3c0,0.1-0.1,0.2-0.2,0.2c-0.1,0.1-0.1,0.2-0.1,0.3l-0.1,0.3c0,0.1-0.1,0.2-0.1,0.2c0,0-0.1,0.1-0.1,0.2
			c0,0.2,0,0.4-0.1,0.7c-0.2,0.4-0.4,0.7-0.4,1c-0.1,0.2-0.2,0.4-0.3,0.5c-0.1,0.2-0.2,0.3-0.3,0.5c0,0.1-0.1,0.2-0.1,0.2
			c0,0-0.1,0.1-0.1,0.2c0,0.1,0,0.2,0,0.3c0,0.1,0,0.2,0,0.3c0,0.2-0.1,0.4-0.2,0.6c-0.1,0.2-0.2,0.4-0.3,0.5c0,0.1-0.1,0.2-0.1,0.3
			c0,0.1-0.1,0.2-0.1,0.3c0,0.1-0.1,0.2-0.1,0.2c0,0,0,0.1-0.1,0.2v0.1c-0.2,0.2-0.2,0.4-0.1,0.5c0,0.1-0.1,0.2-0.2,0.3
			c-0.1,0.2-0.1,0.3-0.1,0.5c-0.1,0.3-0.2,0.5-0.3,0.5c0,0-0.1,0-0.1,0.1c0,0.3-0.2,0.6-0.3,1c-0.1,0.2-0.2,0.4-0.3,0.6
			c-0.1,0.2-0.2,0.4-0.3,0.6c0,0.2-0.1,0.3-0.2,0.3c-0.1,0.1-0.2,0.3-0.1,0.4c0,0-0.1,0.1-0.1,0.1h-0.1V44c0,0.1,0,0.2-0.1,0.3
			c-0.1,0.1-0.1,0.2-0.2,0.3c0,0.1-0.1,0.2-0.1,0.4c0,0,0,0.1-0.1,0.2c-0.1,0.1-0.2,0.2-0.3,0.4c-0.1,0.2-0.1,0.3-0.2,0.5
			c-0.1,0.4-0.2,0.7-0.4,1c0,0.1-0.1,0.2-0.2,0.3c-0.1,0.1-0.1,0.2-0.1,0.4c0,0,0,0.2-0.1,0.3c0,0-0.1,0.1-0.1,0.2
			c0,0.1,0,0.2-0.1,0.3c-0.1,0.1-0.1,0.2-0.2,0.3c0,0.1-0.1,0.2-0.1,0.3v0.1c0,0,0,0.1-0.1,0.1c-0.1,0.1-0.1,0.2-0.1,0.2
			c0,0.1,0,0.1-0.1,0.2c-0.1,0.4-0.2,0.6-0.3,0.7v0.1c-0.1,0-0.1,0.1-0.2,0.2c0,0.1-0.1,0.2-0.2,0.3c0,0.1-0.1,0.2-0.1,0.3
			c0,0.1-0.1,0.2-0.1,0.4c-0.1,0-0.1,0.1-0.1,0.2c0,0.1,0,0.1-0.1,0.2c-0.1,0.3-0.2,0.5-0.3,0.7c-0.1,0.2-0.2,0.5-0.3,0.7
			c0,0.1,0,0.1,0,0.2c0,0,0,0.1,0,0.1c0,0.3-0.1,0.6-0.3,1V55c-0.1,0.4-0.2,0.7-0.2,0.9c-0.1,0.1-0.2,0.3-0.2,0.5
			c0,0.1-0.1,0.3-0.1,0.4c0,0.1-0.1,0.2-0.2,0.3c0,0.1,0,0.2,0,0.3c-0.1,0.1-0.1,0.2-0.1,0.3c-0.1,0.1-0.2,0.3-0.2,0.4
			c0,0.1-0.1,0.3-0.1,0.4c0,0.1,0,0.2-0.1,0.3c0,0.1-0.1,0.2-0.1,0.3l-0.1,0.1V59h-0.1c-0.3,0.1-0.5,0.3-0.7,0.4
			c0,0.1-0.1,0.1-0.2,0.1v0.2c0,0,0,0-0.1,0.1h-0.3v0.2h-0.1h-0.1c0-0.3,0-0.5,0.1-0.6c0.1-0.5,0.2-0.8,0.3-1c0-0.1,0.1-0.2,0.1-0.2
			c0-0.1,0.1-0.1,0.1-0.2c0-0.2,0-0.3,0.1-0.5c0.1-0.1,0.1-0.3,0.2-0.4c0.1-0.1,0.1-0.2,0.2-0.3c0-0.1,0.1-0.2,0.1-0.4
			c0-0.1,0.1-0.4,0.1-0.7l0.1-0.1c0.1-0.1,0.1-0.3,0.1-0.4c0-0.1,0-0.2,0.1-0.3c0.1-0.5,0.2-0.8,0.3-1.1c0-0.1,0-0.2,0-0.3
			c0-0.1,0-0.2,0-0.3c0,0,0.1-0.1,0.1-0.3c0-0.1,0-0.2,0-0.3c0.1,0,0.2-0.2,0.2-0.3c0-0.2,0.1-0.4,0.1-0.6c0-0.2,0-0.4,0.1-0.5
			c0.1-0.1,0.1-0.2,0.1-0.5c0.1-0.2,0.1-0.4,0.2-0.6c0-0.2,0.1-0.4,0.2-0.6v-0.1c0-0.1,0-0.2,0.1-0.2c0.1-0.1,0.2-0.2,0.2-0.5
			c0.1-0.5,0.2-0.8,0.2-1c0.1-0.1,0.1-0.3,0.2-0.4c0-0.2,0.1-0.3,0.1-0.4c0-0.1,0.1-0.3,0.2-0.4c0.1-0.1,0.1-0.2,0.2-0.3v-0.3
			c0.1-0.2,0.2-0.4,0.2-0.4c0-0.1,0.1-0.2,0.1-0.3c0-0.1,0-0.2,0.1-0.3c0,0,0-0.1,0-0.1c0,0,0-0.1,0-0.2c0.2-0.1,0.3-0.3,0.3-0.5
			c-0.1,0-0.1,0-0.2,0c0,0-0.1,0-0.1,0c0-0.2,0.1-0.3,0.3-0.3l0.1-0.1v-0.2l-0.1-0.1c0,0-0.1,0-0.1-0.1l0.1-0.1
			c0-0.1,0.1-0.2,0.1-0.3c0-0.2,0-0.3,0.1-0.3c0-0.1,0.2-0.2,0.3-0.4c0,0,0.1-0.1,0.1-0.2c0-0.1,0.1-0.1,0.2-0.2c0,0,0-0.1,0.1-0.2
			l-0.1-0.1c0-0.1,0-0.2,0-0.2c0,0,0.1-0.1,0.1-0.1c0,0,0-0.1,0.1-0.1c0-0.1,0-0.2,0.1-0.2c0-0.1,0-0.1-0.1-0.2
			c0.2-0.1,0.3-0.2,0.3-0.2c0-0.2,0-0.4,0.1-0.5c0,0-0.1,0-0.1,0.1h-0.1c0,0,0-0.1,0-0.1h0.1c0.1-0.1,0.1-0.2,0.1-0.3
			c0-0.1,0-0.2,0.1-0.3c0.1-0.4,0.2-0.6,0.3-0.8v-0.1c0.1-0.2,0.2-0.5,0.2-0.7c0.1-0.2,0.1-0.5,0.2-0.7c0.1-0.2,0.2-0.4,0.3-0.6
			c0-0.2,0.1-0.4,0.1-0.6c0.1-0.4,0.2-0.7,0.3-1.1c0.1-0.3,0.2-0.7,0.3-1.1c0-0.2,0.1-0.3,0.1-0.5c0-0.1,0.1-0.3,0.1-0.4
			c0-0.2,0.1-0.4,0.2-0.6c0.1-0.2,0.1-0.3,0.2-0.4v-0.2c0-0.2,0.1-0.3,0.1-0.5c0-0.1,0.1-0.2,0.1-0.3c0.1-0.3,0.1-0.5,0.1-0.5
			c0-0.1,0-0.2,0-0.2c0,0-0.1,0-0.1,0.1c-0.1,0-0.2,0-0.4,0.1c-0.1,0-0.2,0.1-0.3,0.1c-0.1,0-0.2,0.1-0.3,0.1l-0.3,0.1
			c-0.2,0.3-0.5,0.5-1,0.7c-0.1,0-0.3,0.1-0.4,0.2c-0.1,0.1-0.3,0.1-0.4,0.2c0,0-0.1,0.1-0.3,0.2c-0.2,0.1-0.3,0.1-0.4,0.1
			c0,0.1-0.2,0.1-0.3,0.1c0,0-0.1,0.1-0.3,0.1c-0.1,0.1-0.2,0.1-0.2,0.1c-0.1,0-0.1,0-0.2,0.1c-0.1,0-0.2,0.1-0.3,0.2
			c0,0.1,0,0.3-0.1,0.3c-0.1,0.2-0.3,0.3-0.4,0.4c-0.2,0.1-0.3,0.2-0.4,0.3c0,0-0.1,0-0.1,0.1c-0.1,0.1-0.4,0.2-0.7,0.3
			c0,0.1,0,0.1-0.1,0.1c-0.2,0.1-0.5,0.2-0.8,0.2c0,0-0.1,0-0.1,0.1c-0.2,0.1-0.5,0-0.7-0.1h-0.6c0,0-0.1-0.6,0-0.8h0.1
			c-0.1-0.2-0.1-0.3,0.1-0.4c0-0.1,0.1-0.1,0.1-0.2c0,0,0-0.1,0.1-0.2c0.1-0.2,0.3-0.4,0.5-0.4c0-0.1,0-0.1,0.1-0.1
			c0.2-0.2,0.3-0.4,0.4-0.5c0.1-0.2,0.2-0.3,0.4-0.4c0.1-0.1,0.2-0.3,0.3-0.4c0.1-0.2,0.2-0.3,0.3-0.4l0.1-0.1
			c0-0.2,0.1-0.3,0.3-0.4c0.1-0.1,0.3-0.2,0.4-0.3c0.1-0.1,0.3-0.2,0.4-0.2c0.1-0.1,0.3-0.1,0.5-0.2c0-0.1,0.2-0.2,0.4-0.3
			c0.1-0.1,0.3-0.2,0.5-0.3c0.1,0,0.1,0,0.2-0.1c0,0,0.1-0.1,0.1-0.1c0.1,0,0.2-0.1,0.3-0.1c0.1,0,0.2-0.1,0.3-0.2
			c0.1-0.1,0.3-0.2,0.4-0.3c0.1-0.1,0.2-0.2,0.3-0.3c0.2-0.2,0.3-0.3,0.4-0.3c0,0,0.2-0.1,0.4-0.3c0.1-0.1,0.3-0.2,0.4-0.2
			c0.1,0,0.2-0.1,0.3-0.2c0,0,0.1,0,0.1-0.1c0,0,0.1-0.1,0.1-0.1c0.1-0.1,0.2-0.2,0.3-0.2c0-0.1,0.1-0.2,0.3-0.3
			c0.1-0.1,0.2-0.1,0.4-0.1c0,0,0.1,0,0.1,0c0,0,0.1,0,0.2,0c0.1-0.1,0.2-0.2,0.2-0.2c0.1,0,0.1-0.1,0.2-0.1
			c0.1-0.1,0.2-0.2,0.3-0.2c0.1-0.1,0.2-0.1,0.3-0.2c0.1,0,0.2-0.1,0.3-0.2c0-0.1,0.1-0.2,0.1-0.2c0,0,0-0.1,0.1-0.1
			c0.1-0.2,0.1-0.4,0.2-0.5c0-0.2,0.1-0.3,0.2-0.4c0.1-0.1,0.1-0.2,0.2-0.3c0-0.1,0.1-0.2,0.1-0.3c0.1-0.3,0.2-0.5,0.3-0.8
			c0.1-0.2,0.1-0.5,0.2-0.8c0-0.4,0.2-0.8,0.4-1.2c0.1-0.3,0.2-0.5,0.2-0.7c0-0.2,0.1-0.4,0.2-0.6c0-0.1,0.1-0.2,0.2-0.3
			c0.1-0.1,0.1-0.2,0.2-0.3c0.1-0.2,0.2-0.5,0.3-0.7c0.1-0.2,0.2-0.5,0.3-0.7c0.1-0.3,0.2-0.5,0.3-0.7c0.1-0.2,0.2-0.5,0.3-0.7
			c0.1-0.4,0.3-0.7,0.4-1.1c0.1-0.3,0.3-0.7,0.4-1.1c0.1-0.3,0.2-0.5,0.3-0.7c0.2-0.6,0.4-1.2,0.7-2c0-0.2,0-0.4,0.1-0.5
			c0-0.1,0.1-0.3,0.1-0.4c0-0.1,0.1-0.2,0.1-0.3l0.4-1c0.1-0.2,0.2-0.4,0.3-0.6c0.1-0.2,0.2-0.4,0.3-0.6c0-0.1,0.1-0.3,0.1-0.4
			c0-0.1,0-0.3,0.1-0.4c0-0.1,0.1-0.2,0.1-0.2c0,0,0-0.1,0.1-0.2c0-0.1,0.1-0.2,0.1-0.3c0-0.1,0.1-0.2,0.1-0.3
			c0.1,0,0.1-0.1,0.1-0.1c0,0,0-0.1,0.1-0.1c0.1-0.1,0.2-0.3,0.2-0.4c0.1-0.2,0.1-0.3,0.2-0.4c0.1-0.2,0.2-0.4,0.3-0.6
			c0.1-0.2,0.2-0.4,0.3-0.6c0.1-0.1,0.2-0.3,0.2-0.4c0-0.1,0.1-0.2,0.2-0.4c0.1,0,0.1-0.1,0.1-0.1c0,0,0-0.1,0.1-0.1
			c0.1-0.1,0.1-0.2,0.1-0.2c0,0,0-0.1,0.1-0.1V2.1c0.1-0.2,0.2-0.2,0.3-0.1h0.1c0,0,0.1,0,0.1-0.1c0.1,0,0.2,0,0.2-0.1
			c0.1,0,0.4-0.1,0.7-0.1h0.3c0.3,0,0.5-0.3,0.6-0.7c0.1-0.2,0.2-0.4,0.3-0.4c0,0,0.1,0,0.1,0c0,0,0.1,0,0.2,0
			c0.1,0,0.2-0.1,0.4-0.1c0.2,0,0.3-0.1,0.5-0.1c0.1,0,0.2,0,0.2,0.1c0,0,0.1,0.1,0.1,0.1h0.3h0.3c0.4,0,0.5,0.2,0.4,0.5
			c0,0.2,0,0.3,0.1,0.3c0,0-0.1,0-0.2,0.1c0-0.1,0-0.2-0.1-0.2l-0.2,0.2c0.1,0.1,0.1,0.2,0.1,0.2c0,0.1,0,0.1,0.1,0.2
			c0,0,0.1,0.1,0.1,0.2c0.1,0,0.2,0.1,0.2,0.3l0.1,0.1c0.1,0.3,0.1,0.5-0.1,0.6c0,0,0,0.1-0.1,0.2c0,0,0,0.2-0.1,0.3
			c0,0-0.1,0.2-0.1,0.3c0,0,0,0.1-0.1,0.1c0,0-0.1,0.1-0.1,0.1c0,0.1-0.1,0.3-0.1,0.4c0,0.2-0.1,0.3-0.1,0.4c-0.1,0-0.1,0.1-0.2,0.2
			c0,0.1-0.1,0.1-0.2,0.2c0,0.1,0,0.2-0.1,0.3c-0.1,0.2-0.2,0.4-0.2,0.4l-0.1,0.1c0,0.1,0,0.2,0,0.2c0,0,0,0.1,0,0.2
			c0,0.1-0.1,0.2-0.1,0.2c0,0.1-0.1,0.1-0.2,0.2v0.1c0,0.1,0,0.2,0,0.2c0,0-0.1,0.1-0.1,0.2c0,0.1-0.1,0.2-0.1,0.2
			c0,0.1-0.1,0.1-0.1,0.2c0,0-0.1,0.1-0.1,0.2c0,0.1-0.1,0.1-0.2,0.1c0,0.1,0,0.2,0,0.2c0,0,0,0.1,0,0.1c-0.1,0.2-0.1,0.3-0.1,0.4
			c0,0-0.1,0.1-0.1,0.2c-0.1,0.1-0.2,0.2-0.3,0.3c0,0.1-0.1,0.2-0.2,0.4v0.1l-0.1,0.3c0,0.1-0.1,0.2-0.1,0.2c0,0.1,0,0.1-0.1,0.2
			c0,0-0.1,0.1-0.1,0.2c0,0.1-0.1,0.1-0.1,0.2c-0.2,0.1-0.3,0.3-0.3,0.5c0,0.2-0.1,0.3-0.2,0.5c0,0.1-0.1,0.2-0.1,0.2
			c0,0,0,0.1-0.1,0.2c0,0.1,0,0.3-0.1,0.4c-0.1,0.1-0.1,0.2-0.2,0.4c0,0.1,0,0.2-0.1,0.4c-0.1,0.1-0.2,0.3-0.3,0.6
			c0,0,0,0.1-0.1,0.2c0,0.1-0.1,0.1-0.1,0.2c0,0.1,0,0.2-0.1,0.2c-0.1,0.1-0.2,0.2-0.2,0.3c0,0.1-0.1,0.3-0.2,0.4c0,0.1,0,0.2,0,0.3
			c0,0.1,0,0.2,0,0.3c0,0.1,0,0.2,0.1,0.2c0,0.1,0.1,0.1,0.1,0.2c0,0.2,0,0.5,0,0.7c-0.1,0.1-0.2,0.2-0.2,0.3
			c-0.1,0.1-0.2,0.3-0.2,0.4c0,0.1-0.1,0.2-0.1,0.3c-0.1,0.1-0.1,0.3-0.1,0.4c0,0.1,0,0.3-0.1,0.4h0.3c0.1-0.2,0.2-0.3,0.4-0.5
			c0.2-0.1,0.3-0.3,0.5-0.5c0.1,0,0.2-0.1,0.3-0.2c0.1-0.1,0.2-0.1,0.3-0.2c0.1-0.1,0.1-0.2,0.1-0.3c0.2-0.2,0.4-0.3,0.5-0.5
			c0.2-0.1,0.4-0.3,0.5-0.5c0.1,0,0.2-0.1,0.3-0.1c0.1,0,0.2-0.1,0.3-0.2c0.1-0.1,0.3-0.2,0.4-0.3c0.1-0.1,0.2-0.2,0.4-0.3
			c0.2-0.1,0.4-0.2,0.6-0.4c0.2-0.2,0.4-0.3,0.6-0.4c0.2-0.1,0.4-0.3,0.6-0.4c0.2-0.1,0.4-0.2,0.6-0.3c0.2-0.2,0.5-0.4,0.7-0.5
			c0.2-0.2,0.5-0.3,0.7-0.5c0.1-0.1,0.2-0.2,0.2-0.2c0.1,0,0.1-0.1,0.2-0.1l0.3-0.3c0.1-0.1,0.2-0.1,0.3-0.1l0.1,0.1
			c0,0,0.1-0.1,0.1-0.3c0.1-0.2,0.4-0.4,0.7-0.6c0,0.2,0.1,0.3,0.2,0.1c0.1-0.1,0.2-0.1,0.2-0.2c0,0,0.1-0.1,0.1-0.1v-0.1
			c0.2-0.1,0.3-0.2,0.5-0.3c0.1-0.1,0.2-0.2,0.3-0.4V11c0,0,0,0.1,0.1,0.1c0.1-0.1,0.2-0.2,0.2-0.2c0.1,0,0.1-0.1,0.2-0.2v-0.1h0.1
			c0,0,0.1,0,0.1-0.1c0.1-0.2,0.3-0.3,0.5-0.3h0.1c0-0.1,0-0.2,0-0.2c0,0,0-0.1,0-0.2c0.3,0.1,0.5,0,0.5-0.3c0-0.2,0.2-0.3,0.3-0.3
			h0.1c0.1-0.1,0.2-0.2,0.3-0.3c0.1-0.1,0.2-0.2,0.3-0.3l0.1-0.1c0.1,0,0.2,0,0.3-0.1c0-0.1,0.1-0.1,0.1-0.2c0,0,0.1-0.1,0.1-0.1
			c0.1-0.1,0.1-0.2,0-0.3c0.1,0,0.2-0.1,0.3-0.3c0.1-0.2,0.3-0.3,0.6-0.3c0.1-0.1,0.2-0.2,0.3-0.2c0-0.2,0.2-0.3,0.5-0.5
			c0.1,0,0.2-0.1,0.3-0.2c0.1-0.1,0.2-0.2,0.3-0.3c0,0,0.1-0.1,0.1-0.2c0-0.2,0-0.3,0.1-0.4c0.1-0.1,0.2-0.2,0.2-0.3
			c0.2-0.2,0.4-0.4,0.5-0.6c0.2-0.2,0.3-0.4,0.4-0.6c0.1-0.2,0.1-0.2,0.1-0.2c0.1,0,0.2,0,0.3-0.1c0.1-0.1,0.2-0.2,0.3-0.3
			c0.1-0.1,0.2-0.2,0.3-0.2c0.1,0,0.2-0.1,0.2-0.2l0.1-0.1c0,0,0.1,0,0.1-0.1l0.1-0.1c0.1,0,0.2-0.1,0.3-0.2c0-0.1,0.1-0.1,0.2-0.2
			c0.3-0.2,0.5-0.3,0.8-0.5c0.2-0.1,0.5-0.2,0.9-0.3c0.1,0,0.2,0,0.2,0c0,0,0.1,0,0.1,0c0,0,0.1,0,0.2,0c0.1,0,0.1,0,0.2,0h0.2
			c0,0,0.1,0,0.2,0.2c0,0.1,0.1,0.1,0.3,0.1c0.5,0,1,0.2,1.6,0.7c0,0.1,0.1,0.1,0.2,0.1c0.2,0,0.3,0,0.3,0.1c0,0,0.1,0.1,0.1,0.1
			h0.1c0.2-0.1,0.4-0.2,0.7-0.1h0.1c0.1,0,0.3-0.1,0.5-0.1c0.1,0,0.1,0,0.1,0.1h-0.1c0,0.1,0,0.2-0.1,0.3c0.1-0.1,0.2-0.1,0.2-0.1
			c0.1,0,0.1,0,0.2-0.1V2.7l-0.1-0.1c0.7,0,1.2,0.2,1.5,0.5c-0.1,0-0.1,0-0.2,0c0,0-0.1,0-0.1,0l-0.1,0.1H145.7z M97.4,35
			 M98.5,60.6c0,0.3,0.1,0.5,0.4,0.7h-0.3c0,0,0-0.1-0.1-0.1c0,0,0-0.1,0-0.1c0,0,0,0,0-0.1c0-0.4,0-0.6,0.1-0.8
			C98.5,60.4,98.5,60.5,98.5,60.6z M99.5,60.6c-0.1-0.1-0.1-0.1-0.1-0.1c0,0,0.1,0,0.1-0.1h0.1C99.5,60.4,99.5,60.5,99.5,60.6z
			 M102.4,45.1c-0.1-0.1-0.1-0.2-0.1-0.3v-0.1l0.1-0.1v-0.1V45.1z M120.7,1.5c0,0-0.1,0-0.1,0.1L120.7,1.5z M120.7,1.1
			c0,0.3,0.1,0.3,0.2,0.2c0.1-0.2,0.3-0.3,0.5-0.3l-0.1-0.1c-0.1,0-0.2,0-0.3,0.1h-0.1L120.9,1L120.7,1.1z M121,27.1l0.1-0.1
			C121.2,27,121.1,27.1,121,27.1z M121.4,26.6c0,0.1-0.1,0.1-0.2,0.1l-0.1-0.1c0,0,0.1-0.1,0.1-0.1c0,0,0-0.1,0.1-0.2
			c0,0.1,0,0.1,0,0.2C121.3,26.5,121.4,26.5,121.4,26.6z M121.8,0.7c0.1,0.1,0.1,0.2,0.1,0.3c0.1-0.1,0.2-0.2,0.2-0.3H121.8z
			 M122.6,41.8c-0.1,0-0.2,0-0.2,0.1h0.1C122.5,41.9,122.6,41.8,122.6,41.8z M123.1,44.9c0.2,0,0.2,0.1,0.1,0.2c0,0-0.1,0-0.1-0.1
			C123.1,45,123.1,45,123.1,44.9C123.1,45,123.1,45,123.1,44.9z M131.4,8.5l0.1-0.1L131.4,8.5L131.4,8.5z M145.3,2.8
			c0.1,0.2,0.1,0.3,0.2,0.3c0,0,0.1,0,0.2-0.1c0,0-0.1-0.1-0.1-0.1C145.5,3,145.4,2.9,145.3,2.8z"/>
	</g>
</g>
</svg>
